<?xml version="1.0" standalone="no"?>
<!DOCTYPE svg PUBLIC "-//W3C//DTD SVG 20010904//EN"
 "http://www.w3.org/TR/2001/REC-SVG-20010904/DTD/svg10.dtd">
<svg version="1.0" xmlns="http://www.w3.org/2000/svg"
 width="1280.000000pt" height="1280.000000pt" viewBox="0 0 1280.000000 1280.000000"
 preserveAspectRatio="xMidYMid meet">
<g transform="translate(0.000000,1280.000000) scale(0.100000,-0.100000)"
fill="#000000" stroke="none">
<path d="M1969 9943 c-23 -59 -69 -285 -88 -428 -41 -307 -46 -430 -46 -1040
0 -705 18 -1066 94 -1900 17 -176 32 -378 36 -450 46 -1007 340 -1853 862
-2482 129 -156 370 -385 535 -508 186 -140 310 -217 523 -326 495 -254 1040
-405 1710 -475 210 -22 1186 -32 1445 -15 765 50 1359 201 1930 492 661 335
1154 834 1480 1494 267 542 397 1095 440 1875 6 102 19 273 30 380 95 954 128
2057 80 2670 -22 285 -94 698 -128 732 -24 24 -294 -93 -515 -223 -153 -91
-401 -252 -577 -377 -294 -208 -816 -611 -1138 -880 l-113 -94 -162 75 c-513
239 -1020 391 -1492 449 -72 8 -227 13 -450 13 -223 0 -378 -5 -450 -13 -468
-57 -980 -212 -1489 -448 -87 -41 -163 -71 -170 -67 -6 4 -96 77 -201 163
-749 613 -1417 1086 -1824 1289 -102 52 -276 121 -302 121 -5 0 -14 -12 -20
-27z"/>
</g>
</svg>
