<?xml version="1.0" encoding="utf-8"?>
<!-- Generator: Adobe Illustrator 16.0.3, SVG Export Plug-In . SVG Version: 6.00 Build 0)  -->
<!DOCTYPE svg PUBLIC "-//W3C//DTD SVG 1.1//EN" "http://www.w3.org/Graphics/SVG/1.1/DTD/svg11.dtd">
<svg version="1.1" id="Layer_1" xmlns="http://www.w3.org/2000/svg" xmlns:xlink="http://www.w3.org/1999/xlink" x="0px" y="0px"
	 width="753.6px" height="595px" viewBox="44.3 -0.1 753.6 595" enable-background="new 44.3 -0.1 753.6 595" xml:space="preserve">
<g id="CutContour">
	<path fill="#FFFFFF" stroke="#FFFFFF" stroke-width="0.25" stroke-miterlimit="10" d="M792.5,261.3c0,0-0.4-0.9-0.5-1.2
		c2.1-3.2,2.7-6.9,1.6-10.5l-0.4-1.2c-0.9-2.8-2.3-7.4-4.6-11.7c-0.2-6-2-14-5.9-20.4c2.3-14.4-6.4-29.1-12.2-39l-0.9-1.4
		c-8.9-14.9-17.2-27.5-25.7-38.5c-11.2-14.4-22-25.7-33.5-34.9c-6.9-5.7-15.1-11.7-24.8-14.9c-2.5-3.4-5.5-6.2-9.2-8.2
		c-0.7-1.1-1.6-2-2.7-2.7c-1.8-1.2-3.7-2.5-5.7-3.4c-2.7-7.6-9-13.3-18.8-17c-7.6-2.8-16.5-6.4-25.4-11.7
		c-16.7-10.1-35.1-20.4-56.2-27.7c-9-3.2-18.8-6-30.7-9.2c-2.1-0.5-4.1-1.1-6.2-1.8c-8.2-2.3-16.5-4.6-25.2-5.7
		c-2.1-0.2-4.3-0.4-6.4-0.4c-9.2,0-16.8,2.5-23,7.3c-1.2,0.9-2.3,2-3.4,3c-2.5-1.9-5.1-3.4-7.8-4.1c-1.4-0.4-3-0.5-4.4-0.5
		c-2.7,0-5,0.7-6.6,1.1c-0.4,0.2-0.7,0.2-1.2,0.4c-0.4,0-0.9,0.2-2.1,0.2c-0.7,0-1.4,0-2.3,0c-1.1,0-2,0-3,0c-2.7,0-4.8,0.2-7.1,0.7
		c-0.7,0.2-1.6,0.5-2.3,0.7c-2-0.2-3.9-0.4-5.9-0.4c-3,0-6.2,0.2-9.7,0.7l-0.9,0.2c-2.3,0.4-4.4,0.5-6.7,0.9
		c-10.8-3.5-22.2-5.9-33.7-7.3c-6.2-0.7-12.6-1.1-19-1.1c-19.7,0-40.6,3-65.9,9.6c-14.2,3.7-29.3,8.2-46.3,13.6
		c-17.4,5.7-30.7,12.6-42,22c-22.2,18.6-43.3,43.8-61.2,73.2c-1.1,1.6-1.6,3.5-1.8,5.5c-1.2,3.5-1.8,7.1-2,10.3
		c-0.5,0.5-1.2,1.2-1.6,2c-4.3,5.5-5,11.5-4.8,16c-0.2,0-0.4,0.2-0.4,0.2c-1.8,0.9-3.7,1.9-5.8,3.4c-1.4,0.9-2.5,1.9-3.5,3.2
		c-5.7,2.1-10.3,5-13.8,8.2c-2.5,2.3-4.4,5-5.7,8.3c-4.4,1.8-8.3,4.3-11.7,7.3c-15.2,13.8-23,34-28.9,48.8
		c-15.1,38.3-22,80.5-20,121.6c0.4,9.2,1.2,21.1,4.1,32.8c1.6,6.9,4.3,17.7,10.8,25.5c-0.9,3-1.6,6-2.1,8.9
		c-1.1,6.7,3,13.1,9.4,14.4c1.6,0.4,3,0.5,4.4,0.7c0.2,0.2,0.2,0.4,0.4,0.4c2.1,2.7,4.8,3.9,6.6,4.8c2,4.8,6,8.7,11.7,11.3
		c1.2,5.5,4.6,10.8,9.9,15.8c14.5,13.5,27.5,28.2,42.4,46.3c1.6,2,3.4,4.1,5.1,6.4c11.5,14.7,27.3,34.4,49.1,36.7
		c1.6,1.4,3.4,2.5,4.6,3.2l0.4,0.2c3.7,2.1,8,4.6,13.1,6c3.9,3.5,9.6,5.5,17.5,5.8c3.7,3.2,8.5,4.3,11.9,5h0.4
		c0.9,0.2,1.8,0.4,2.5,0.5c2.8,0.9,5.7,1.2,8.2,1.2c4.1,0,7.6-0.9,10.8-2.8c4.4,2.5,8.9,4.6,13.1,6.6c8.2,3.5,17,4.6,24.6,5.7
		c1.4,0.2,2.8,0.4,4.4,0.5c20.2,3,36.9,4.3,52.5,4.3c1.6,0,3,0,4.4,0c0.9,0,1.8-0.2,2.7-0.4c6-0.5,10.8-3,13.6-6.7
		c3.5-0.4,6.9-0.9,10.1-1.4l2.1-0.4c5.5-0.9,13.5-2.7,20.7-8.2c6.4-1.9,12.6-5.5,18.3-10.1c3.7-3.2,11.5-9.8,11-19.1
		c1.8-2.8,3.2-6,4.1-9.4c3.7-15.1-6.4-20.2-11.3-22.5c-0.9-0.4-1.6-0.9-2.5-1.2c-3.5-1.9-7.1-5.7-11-9.8c-6-6.2-12.6-13.3-21.8-16.3
		c-2.8-3.5-6-6.6-9.4-8.9c0-5.1-0.5-10.1-1.8-14.9c-1.2-5.1-3.2-10.3-5.7-15.2c3-3.4,4.3-7.8,3.5-12.2c5.5-9.8,7.6-20.2,9.8-29.6
		c0.4-1.4,0.7-3,0.9-4.4c1.2-5.5,2.7-11.2,5.1-16.1c0.2-0.2,0.2-0.4,0.4-0.5c4.6-0.4,9.6-1.6,14.4-3.5c6.4-2.5,12.2-5.5,17.7-8.5
		c6-3.2,12.4-6.6,18.8-8.7l3.5-1.1c11.3-3.5,23.2-7.3,34-15.4c9.4-6.9,18.8-15.4,29.8-27.1c1.6-1.8,3-3.2,4.3-4.8
		c3,0,11.2-0.2,17.7-6.2c0.4-0.2,0.5-0.5,0.7-0.7c0.4,0,0.7,0,1.1,0c5.5,0,11.5-0.4,18.1-0.9h0.5c8.5-0.7,18.1-1.6,26.9-5.3
		c5-0.4,9.9-1.4,14.5-3.4c4.8-2,8.7-4.8,11.9-8.5c7.6,4.3,16.8,8.2,28.2,11.5c5.8,1.8,11,2.7,15.8,2.7c4.8,0,9.4-0.9,13.3-2.7
		c9.8,10.3,23,13.8,32.8,15.6c4.1,2.5,7.1,5.1,8.5,9c0.5,1.2,0.9,2.7,1.4,4.3c1.6,5.3,3.9,12.4,9.9,17.5c3.4,3,7.8,4.4,12.8,4.4
		c5.5,0,10.8-2,14.4-3.2l0.4-0.2c7.4-2.7,16.8-6.7,22.5-14.4c0.4-0.4,0.5-0.9,0.9-1.4c3.2-3.9,5.5-8.5,6.7-12.9
		c2.5-2.7,4.1-5.7,5.1-7.8l0.4-0.7c3.4-6.4,6.6-15.4,5.1-24.3c0.9-1.6,1.6-3.5,1.8-5.5C798.7,277.1,795.2,267.9,792.5,261.3z"/>
</g>
<g id="croissant-1-FC">
	<g id="XMLID_1_">
		<path d="M360.3,587.7c-15.1,0-31.6-1.4-51.4-4.3c-1.4-0.2-3-0.4-4.4-0.5c-7.6-1.1-15.4-1.9-22.7-5.1c-5.5-2.5-11.3-5.3-17-8.7
			c-2.3,2.8-5.7,4.4-9.9,4.4c-2,0-4.1-0.4-6.2-0.9c-1.1-0.4-2.1-0.5-3.2-0.7c-3.5-0.7-8-1.6-10.1-5l0,0c-8.9,0-14.4-1.8-17-5.3
			c-5-0.7-9.4-3.4-13.3-5.7l-0.5-0.2c-1.8-0.9-3.5-2.1-5-3.9c-20-0.5-34.7-19.1-46.6-34c-1.8-2.3-3.5-4.4-5.1-6.4
			c-15.1-18.3-28.2-33.2-43.1-47c-5.5-5.1-8.2-10.3-8.3-15.8c-5.9-1.6-11.5-5.5-12.2-10.8l0,0c-0.5-0.5-1.4-1.1-2.7-1.4
			c-1.4-0.5-3.2-1.4-4.6-3c-0.7-0.9-1.2-1.8-1.6-2.7h-0.2c-2.3-0.2-4.6-0.4-7.1-0.9c-2.5-0.5-4.1-3-3.5-5.8
			c0.7-4.1,1.8-8.2,3.2-12.1c-7.4-6-10.3-18.1-12.1-25.3c-2.7-11-3.4-22.7-3.9-31.4c-2-40.2,4.8-81.2,19.5-118.6
			c5.5-14,13.1-33.3,26.9-45.9c3.5-3.4,7.8-5.7,12.6-6.9c1.1-3.7,2.7-6.6,5-8.7c3.2-2.8,7.6-5.3,13.3-7.3c0.9-1.2,2.1-2.5,3.5-3.5
			c1.6-1.1,3.2-2,4.8-2.7c1.8-0.9,3.4-1.8,4.8-2.8c0.2-0.2,0.2-0.2,0.4-0.4c-0.9-4.6-1.1-10.3,2.7-15.1c0.9-1.1,1.9-2.1,3-3v-0.7
			c0.4-4.1,0.5-8.2,2.3-11.9c-0.2-0.9,0-2,0.5-2.7c17.7-29.6,38.3-54.2,59.7-72c10.6-8.9,23.2-15.4,39.5-20.6
			c17-5.5,31.9-9.9,45.9-13.5c24.8-6.4,45.2-9.4,64-9.4c6.2,0,12.2,0.4,18.1,1.1c11.5,1.2,22.9,3.7,33.9,7.4
			c2.8-0.4,5.7-0.9,8.5-1.2l0.9-0.2c3.4-0.5,6.2-0.7,8.7-0.7c2.5,0,4.8,0.2,6.9,0.5c1.1-0.5,2.1-0.9,3.2-1.2
			c1.4-0.4,3.2-0.5,5.1-0.5c0.9,0,1.8,0,2.7,0c0.9,0,1.8,0,2.5,0c1.6,0,2.7-0.2,3.7-0.4c0.5-0.2,1.1-0.4,1.6-0.4
			c1.4-0.4,2.8-0.9,4.4-0.9c0.9,0,1.6,0.2,2.5,0.4c2.7,0.7,5.3,2.5,8,5.3c1.2-0.2,2.5-0.4,3.5-0.4c0.5,0,0.9,0,1.4,0
			c1.4-2.1,3-3.9,4.8-5.5c4.8-3.7,11-5.7,18.4-5.7c1.8,0,3.5,0.2,5.5,0.4c8.2,0.9,16.1,3.2,23.9,5.3c2.1,0.5,4.3,1.2,6.4,1.8
			c11.7,3,21.3,6,30.1,9c20.6,7.1,38.5,17.2,54.8,26.9c9.4,5.7,18.8,9.4,26.6,12.4c8.9,3.4,13.8,8.3,15.1,15.4
			c2.7,0.9,5.1,2.3,7.6,3.9c0.7,0.5,1.4,1.4,1.8,2.3c4.1,1.8,7.6,4.8,9.8,8.7c9.6,2.3,17.9,8.5,25,14.2c11,8.9,21.4,19.9,32.3,33.7
			c8.3,10.6,16.5,23,25.2,37.8l0.9,1.4c5.8,9.8,14.4,24.3,10.6,36.7c4.4,5.8,6.6,14.5,6.4,20.6c0,0.2,0,0.4,0,0.5
			c2.5,3.7,4.1,8.7,5,11.9l0.4,1.2c0.5,1.4,0.2,2.8-0.5,4.1c-0.7,0.9-1.8,1.6-3,2c0.9,2.1,1.8,4.1,2.5,6l0.2,0.4
			c2.3,5.9,5.7,14,4.8,20.6c-0.2,2.1-1.2,3.7-2.7,4.6c2.8,8-0.9,17.4-3.5,22.7l-0.4,0.7c-1.2,2.3-2.8,5.5-5.3,7.3
			c-0.5,4.3-2.8,8.9-6.2,12.8c-0.2,0.4-0.4,0.7-0.5,1.1c-4.4,6-12.4,9.4-19,11.7l-0.4,0.2c-3.2,1.2-7.6,2.7-11.9,2.7l0,0
			c-3.2,0-5.9-0.9-8-2.7c-4.3-3.7-6-9.2-7.6-14c-0.5-1.8-1.1-3.4-1.6-4.8c-2.7-6.4-7.6-10.3-12.9-13.3c-9.6-1.6-23-5-31.7-15.4
			c-1.2-0.5-2.5-1.1-3.7-1.6c-0.7,0.5-1.4,0.9-2.3,1.4c-3.2,1.6-6.9,2.5-11.2,2.5c-4.1,0-8.5-0.7-13.7-2.3
			c-13.6-4.1-24.1-8.9-31.9-14.2c-0.5,0.4-1.1,0.5-1.6,0.9c-3,5.3-6.6,8.5-11.7,10.5c-4.4,1.8-8.9,2.7-13.5,2.8
			c-8.2,3.5-17.5,4.4-25.9,5.3h-0.5c-6.4,0.5-12.1,0.9-17.4,0.9c-1.6,0-3,0-4.6,0c-0.7,1.1-1.6,2-2.5,2.8c-4.1,3.7-9.4,4.3-12.9,4.3
			c-1.1,0-2.1,0-3.2-0.2c-1.8,2.3-3.9,4.6-6.4,7.3c-10.6,11.2-19.7,19.5-28.7,26.2c-9.8,7.3-20.9,10.8-31.9,14.2l-3.5,1.1
			c-7.1,2.3-13.6,5.8-20,9.2c-5.5,2.8-11,5.8-17,8.2c-5.3,2.1-10.6,3.2-15.6,3.2c-0.2,0-0.4,0-0.4,0c-0.9,1.6-2,3-2.7,4.6
			c-2.8,5.7-4.4,11.9-5.7,17.9c-0.4,1.4-0.7,3-0.9,4.6c-2.1,10.3-4.4,20.7-10.3,30c0.2,0.7,0.4,1.2,0.5,2c0.5,2.8-0.4,5.5-2.5,7.4
			c-0.9,0.7-1.8,1.2-2.5,1.6c-0.4,0.2-0.5,0.4-0.9,0.5c3.9,6.2,6.6,12.6,8.2,19c1.2,5.3,1.8,10.8,1.4,16.7c0.2,0.4,0.4,0.5,0.5,0.9
			c4.4,2.5,8.5,6.2,12.1,11.2c8.5,1.8,14.7,8.5,20.9,14.9c4.3,4.4,8.3,8.7,12.8,11.2c1.1,0.5,2,1.1,2.8,1.4c4.8,2.3,9.8,4.8,7.4,14
			c-0.9,3.4-2.7,6.7-4.8,9.4c0.2,0.5,0.4,1.1,0.4,1.4c0.9,5.8-4.8,10.8-8.3,13.6c-5.1,4.4-11,7.6-16.8,9c0,0,0,0-0.2,0
			c-6,5-12.9,6.6-18.3,7.4l-2.1,0.4c-4.4,0.7-9.2,1.4-13.8,1.8v0.2c-1.1,3.5-4.6,5.8-10.1,6.2c-0.4,0.2-0.9,0.2-1.4,0.2
			C363.3,587.7,361.7,587.7,360.3,587.7z"/>
		<path d="M782.8,264.7c-1.2-3.4-2.8-6.7-4.6-9.9c1.1,0.2,1.9,0.4,3,0.5c1.4,0.2,3.2-0.9,2.7-2.7c-1.1-3-2.7-9.6-5.7-13.5
			c0.2-0.4,0.2-0.7,0.4-1.1c0.2-6-2.3-14.9-6.7-19.9c4.6-12.1-5.1-27.5-10.8-37.2c-7.6-12.9-15.8-25.5-25-37.4
			c-9.4-12.1-19.9-23.6-31.9-33.1c-7.4-6-15.8-12.1-25.2-14c0-0.2,0-0.4-0.2-0.5c-2.1-4.3-5.8-7.3-9.9-8.7c0.2-0.7-0.4-1.6-0.9-2.1
			c-2.7-2-5.7-3.4-8.5-4.1c0-0.2,0-0.4,0-0.4c-0.7-7.8-6.6-12.1-13.5-14.5c-9.6-3.5-18.4-7.3-27.1-12.6
			c-17.5-10.6-34.7-20-54.2-26.8c-9.9-3.4-19.9-6.2-30-8.9c-9.8-2.7-19.9-5.8-30-7.1c-7.4-0.9-15.8,0-22,4.8c-2.3,1.8-3.7,3.9-5,6.2
			c-2.5-0.4-5-0.2-7.4,0.4c-2.3-2.7-4.8-4.8-7.6-5.5c-2.7-0.7-4.8,0.4-7.3,0.9c-4.6,1.1-9.6-0.4-14.2,0.7c-1.2,0.4-2.3,0.7-3.4,1.4
			c-5-1.1-10.3-0.9-15.8,0c-3.4,0.5-6.7,0.9-9.9,1.4c-11-3.7-22.3-6.2-33.9-7.4c-27.3-3-54.8,1.4-81.2,8.3
			c-15.4,4.1-30.7,8.5-45.7,13.5c-14.2,4.6-27.1,10.6-38.6,20.2c-23.6,19-43.6,44.3-59.4,70c-0.4,0.4-0.2,0.9,0.2,1.2
			c-2.1,4.1-2.3,9-2.7,14c-1.2,0.9-2.5,1.9-3.5,3.2c-3.4,4.3-3,9.4-2,14.4c-0.5,0.5-0.9,1.1-1.4,1.4c-2.8,2.5-6.6,3.5-9.8,5.7
			c-1.4,1.1-2.5,2.1-3.4,3.5c-5,1.6-9.8,3.9-13.3,7.1c-2.5,2.3-3.7,5.5-4.4,8.9c-4.6,1.1-9,3.2-12.9,6.7c-12.9,11.7-20,29.1-26.2,45
			c-14.5,37.2-21.3,77.6-19.3,117.5c0.5,10.3,1.4,20.9,3.7,31c2,8,4.6,19,11.3,24.1c0.5,0.5,1.2,0.2,1.8-0.2
			c-1.9,4.6-3.5,9.6-4.3,14.5c-0.2,1.2,0.4,2.5,1.6,2.8c2.8,0.7,5.8,0.7,8.7,0.9h0.2c0.2,1.2,0.5,2.5,1.6,3.5
			c1.9,2.3,5.3,2.3,7.3,4.6c0.2,0.2,0.4,0.4,0.5,0.4c0,5.5,7.3,9,12.4,9.9c-0.7,6.2,2.1,11,7.3,16c15.8,14.7,29.6,30.7,43.3,47.2
			c12.8,15.4,28.9,40.1,51.4,39.5c0.9,2.1,3,3.2,5.1,4.4c3.9,2.3,8.2,4.8,12.4,5.3c0.4,0,0.7,0,1.1-0.2c0,0,0,0,0,0.2
			c2.1,5,10.8,5.5,17.2,5.3c1.2,4.4,7.6,4.6,12.4,5.8c5.1,1.4,11.5,1.4,14.4-4.1c0.2-0.2,0.2-0.4,0-0.7c6,3.7,12.6,7.3,19.1,10.1
			c8.3,3.5,17.6,4.3,26.4,5.5c18.4,2.7,36.9,4.4,55.5,4.1c0.2,0,0.5,0,0.7-0.2c3.5-0.2,7.3-1.2,8.2-4.3c0.2-0.7,0.2-1.4,0-1.9
			c6-0.4,12.2-1.4,18.1-2.3c6.4-1.1,12.1-2.8,17-6.9c0.2-0.2,0.2-0.2,0.4-0.4c6-1.4,11.7-4.6,16.5-8.7c3-2.5,8-6.9,7.4-11.3
			c-0.2-0.9-0.5-1.6-0.9-2.3c2.7-2.7,4.4-6.4,5.3-9.6c2.1-8.5-2.5-9-8.9-12.4c-11.9-6.4-20-23.8-33.9-26.1
			c-3.4-4.8-7.3-8.9-12.6-11.5c-0.4-0.7-0.7-1.4-1.2-2.1c0.4-5.5,0.2-11-1.2-16.7c-1.6-6.6-4.4-12.8-8-18.6
			c-0.4-0.5-0.7-1.1-1.1-1.6c0.5-0.7,1.1-1.2,1.8-1.6c1.1-0.7,2.3-1.1,3.2-1.9c1.6-1.4,2.1-3,1.8-5.1c-0.2-0.9-0.5-1.8-0.9-2.7
			c0,0,0,0,0-0.2c7.1-10.3,9-22.7,11.7-34.7c1.4-6.4,3-12.6,5.9-18.4c1.1-2.1,2.3-4.1,3.5-6c5.5,0.4,11.2-0.9,16.5-2.8
			c12.9-5,23.9-13.1,37.2-17.4c12.2-3.9,24.3-7.3,34.7-14.9c10.1-7.4,19.7-16.7,28.4-25.9c2.5-2.7,5-5.3,7.1-8.2
			c5.7,0.4,11.3,0.5,15.4-3.4c1.1-1.1,2.1-2.1,2.8-3.5c7.6,0.4,15.4,0,23-0.7c8.5-0.7,18.1-1.6,26.1-5.3c4.4-0.2,9-1.1,13.1-2.7
			c5.3-2.1,8.3-5.5,10.6-10.1c1.2-0.7,2.5-1.4,3.5-2.1c9.6,7.3,22.5,11.9,32.6,14.9c7.1,2.1,15.8,3.5,22.9,0
			c1.2-0.7,2.3-1.4,3.2-2.1c1.8,1.1,3.5,1.9,5.5,2.5c7.4,9.4,19.3,13.3,31,15.1c6,3.5,11.5,7.8,14.4,14.9c2.3,5.9,3.4,13.5,8.5,17.9
			c4.8,4.1,12.4,1.2,17.6-0.7c6.2-2.1,13.6-5.5,17.7-10.8c0.2-0.2,0.4-0.5,0.4-0.7c3.2-3.5,5.9-8.3,6-13.1c2.8-1.2,4.4-5.1,5.9-7.6
			c3.7-7.3,6.2-16.5,2.1-23c1.8,0,3.4-1.1,3.5-3.5C788.4,278.1,785.1,270.2,782.8,264.7z M778.7,250.3c-1.2-0.2-2.7-0.4-3.9-0.5
			c-1.4-0.2-3-0.4-4.4-0.4c-6.9-0.5-14-0.4-21.1,0c-9.6,0.5-19.9,0.9-29.3,3.7c-6.7,2.1-12.9,5.5-19.1,9.6c5-4.4,10.1-8.3,16-11.7
			c17.2-10.3,36.9-14.9,56.7-11.3l0,0C776,242.3,777.6,246.8,778.7,250.3z M773.9,235.2c-34.7-6.9-67,12.4-88.3,39.2
			c7.3-14.9,18.1-27.8,31.4-37.6c6.9-5.1,14.7-9.6,22.7-12.9c7.4-3,15.6-6,23.8-6l0,0c1.8,0.7,3.4,1.6,4.8,3.4
			C771.4,224.8,773.7,230.3,773.9,235.2z M674.1,95.5C673.9,95.7,673.9,95.7,674.1,95.5c-2.8,1.1-5.1,2.7-6.9,4.8
			c-5.7,6.2-8.5,16.1-11.2,23c-6.2,16.7-10.8,33.9-13.7,51.4c-3.2,20-4.4,40.6-8.2,60.3c-0.2-3.9-0.2-7.6-0.4-11.5
			c-0.2-10.5,0-20.9,0.4-31.6c1.2-35.6,2.8-77.1,31.6-102.1C668.8,91.3,671.6,93.1,674.1,95.5z M419,23.2c5.3-0.5,10.3-0.9,15.2-0.2
			c0.7,0,1.2,0.2,1.8,0.4c3.5,0.7,7.1,2.1,10.5,4.4c7.8,5.5,14,13.6,19.7,21.1c5.5,7.3,10.6,14.9,15.2,22.7c1.6,2.7,3,5.3,4.6,8
			c-10.8-16.5-23.9-31.2-40.4-42.2c-8.5-5.7-17.4-10.3-26.9-14C418.8,23.2,418.8,23.2,419,23.2z M310.3,577.2
			c-8.2-1.2-16.7-2.1-24.3-5c-8.5-3.4-16.1-8.7-24.5-12.4c-0.2-0.2-0.5-0.2-0.7-0.2c-0.4-3.9,1.4-9.8,1.8-10.8c0.9-3.2,2-6.4,3-9.6
			c2.3-6.7,5.1-13.3,8.5-19.5c6.4-12.2,14.5-23.6,23.8-33.7c9.4-10.3,20-19.3,31.6-26.9c5.9-3.9,11.7-7.4,17.9-10.6
			c5.3-2.8,10.8-4.6,16.3-6.4c0.7,1.2,1.4,2.3,2.3,3.5c0.4,1.8,0.7,3.5,0.9,5.3c1.1,7.1,0.9,14.4-0.4,21.5
			c-2.3,14.5-8,28.4-12.4,42.4c-4.3,12.9-7.8,26.6-6.9,40.4c0.7,11.3,6,19.1,13.5,26.6C343.8,582,327,579.7,310.3,577.2z
			 M420.2,523.7c2,1.6,4.1,3,6.2,4.3c2,1.1,5.5,1.9,6.7,3.9c2.7,4.3-1.1,8.3-4.4,11.9c-1.8-1.1-3.7-1.8-5.3-2.7
			c-13.8-8.3-18.6-26.2-26.9-39.7C406.1,505.8,411.9,516.9,420.2,523.7z M390.5,498.3c0.4,0.5,0.7,1.1,1.1,1.4
			c7.4,11.2,11.7,25.7,20,36c2.8,3.4,6,6.6,9.9,8.9c1.2,0.7,3.2,1.2,4.8,2.1c0.5,0.2,1.1,0.5,1.4,0.9c0.5,0.5,0.9,0.9,1.1,1.4
			c1.4,3-2.3,5.7-4.3,7.4c-5,4.6-11,7.3-17.4,9c-7.8-5.3-13.1-11.5-15.8-20.9c-2.5-8.7-2.5-17.7-2.8-26.8
			c-0.4-8.7-0.7-17.5-4.1-25.7c-0.2-0.4-0.4-0.7-0.5-1.1C386.2,493,388.5,495.7,390.5,498.3z M380.2,490.3c0.9,2.1,1.6,4.3,2.1,6.6
			c2.7,10.6,2,21.6,2.7,32.6c0.5,7.6,1.6,15.4,4.8,22.5c2.8,6.4,7.1,10.8,12.4,14.7c0.7,0.5,1.4,1.1,2.1,1.6
			c-0.9,0.5-1.8,1.1-2.7,1.6c-8.7,4.6-19.7,3.5-29.6,5.3c-1.6-3.9-2.8-7.1-3.2-11.5c-1.2-16.7,2.1-34.4,6.2-50.5
			C377.2,505.4,379.1,498,380.2,490.3z M370.8,470.7c0-0.2,0-0.4,0-0.7c0.4-3.9,0.5-8,0.4-12.1c0-1.1-0.2-2.3-0.4-3.5
			c1.6,3.5,3,7.1,4.1,10.8c1.2,4.4,2,8.7,2,13.1c0,1.6,0,3.2,0,4.8c0,0.5,0,1.1-0.2,1.8c0,0.4,0,0.9-0.2,1.4
			c-0.7,7.8-2.7,15.6-5,23.6c-3.5,13.5-5.8,27.1-6.9,40.9c-0.4,6-0.5,12.1,0.5,17.9c0.5,2.5,1.2,5,2.3,7.3c0,0,0,0.2,0.2,0.2
			c0.5,1.1,0.9,1.8,0.9,2.3c0,0.5-0.4,1.1-1.8,1.8c-0.5,0.4-1.2,0.5-2.1,0.7c-4.8-5-9.8-10.3-12.1-17c-2.3-7.1-2.1-15.1-1.2-22.3
			c2-15.4,7.8-29.8,12.6-44.3C367.2,488.6,369.7,479.7,370.8,470.7z M522.3,299.2c-1.2,1.9-2.5,3.7-3.9,5.5
			c-0.9,1.1-1.8,2.1-2.7,3.2c-5,5.8-10.5,11-16,16.1c-11,10.3-21.6,19.3-36,24.3c-12.6,4.3-24.6,7.8-36.3,14.4
			c-8.3,4.6-17.7,9.8-27.3,10.8c0.9-1.4,1.6-2.8,2.3-4.3c8-2.1,14.9-6.6,15.4-16.3c0.7-13.8-4.3-29.3-9.2-42
			c-10.8-27.8-29.4-51.9-47.9-75c0-0.2-0.2,0-0.2,0.2c14.5,20.9,29.3,42,39.9,65.4c5.3,11.7,9.6,23.9,11.9,36.5
			c1.2,6.2,3.5,15.2-0.2,20.9c-1.8,2.8-4.8,4.6-8,6c0.7-2.5,0.9-5,0.9-7.4c3.4-7.8,1.4-16.8-1.4-25.2c-4.3-12.9-9.4-25.4-15.4-37.6
			c-11.9-24.6-27.8-46.8-46.1-67c-0.2-0.2-0.4,0.2-0.2,0.2c16,19,29.3,39.9,40.4,61.9c5.5,11,10.3,22.2,14.5,33.7
			c2.7,7.3,6,16,6.4,24.1c-1.6-5.3-4.1-10.5-6.4-15.2c-0.9-1.8-1.8-3.5-2.8-5.3c-1.2-3.5-2.7-6.9-4.1-10.3
			c-6.6-15.8-15.1-30.5-24.8-44.5c-20.2-28.7-45.4-51.6-72.5-73.6c0,0-0.2,0,0,0c23.8,20.6,46.6,44.1,65.2,69.3
			c9,12.4,17.2,25.4,23.8,39.2c0.2,0.2,0.2,0.5,0.4,0.7c-2.3-3.2-4.6-6.4-7.1-9.4c-5.9-7.1-12.1-14-18.6-20.4
			c-10.6-15.6-23.4-29.8-37.2-42.2c-14-12.6-29.8-22.9-45.7-33c-16.7-10.5-34.6-21.3-53.7-26.2l0,0c9.2,4.3,18.3,8.2,27.1,13.3
			c8.5,5,16.8,10.5,25,15.8c15.4,10.3,30.7,20.6,44.3,33.1c7.6,6.9,14.7,14.4,21.3,22c-27.3-22.7-59-40.6-91.8-53
			c-28-10.6-57.4-17.4-87.6-17.7c0,0-0.2,0.2,0,0.2c50.3,7.4,98.9,22.2,142.3,49.3c18.8,11.7,36.3,25.3,52.1,40.9
			c2.7,2.7,5.3,5.3,8,8.2c2.7,2.8,5.1,5.7,7.6,8.5c6.2,7.3,12.1,15.1,17.2,23.2c2,3.2,4.3,6.9,6.4,10.6l0,0
			c2.7,4.6,5.1,9.8,6.7,14.7c1.4,4.4,2.3,8.9,2.1,13.1c0,0.5,0,1.1-0.2,1.6c-0.2,1.1-0.4,2.3-0.7,3.4c-0.4,1.1-0.7,2.1-1.2,3.2
			c-0.5,1.1-1.1,2.1-1.8,3.2s-1.4,2.1-2.1,3.2c-0.7,1.1-1.4,2.1-2,3c-0.4,0.7-0.9,1.2-1.2,1.9c-3,5.1-5,10.8-6.4,16.7
			c-3,11.7-4.3,24.1-9.9,34.9c-0.5-1.9-1.4-3.5-2.5-5.3c-1.9-10.3-5.5-20.2-9-29.8c-0.2-0.4-0.2-0.5-0.4-0.9
			c-3.5-9.4-7.4-18.8-12.6-27.3c-9.9-16.1-23.4-29.8-39.4-39.9c-31-19.7-73.2-24.3-108.1-12.9c-0.2,0,0,0.2,0,0.2
			c18.1-4.4,37.2-4.1,55.7-1.2c18.1,2.7,35.6,8.3,51.1,18.3c15.2,9.8,28,23.2,37.4,38.6c-9.6-10.5-21.5-18.8-33.2-24.6
			c-0.2-0.2-0.4,0.2-0.2,0.2c11.3,7.3,21.3,16.1,29.8,26.4c5.5,6.6,9.9,13.8,14.2,21.1c3,8,5.7,16.1,8.7,24.1
			c-4.4-5.7-8.7-11.5-12.9-17.6c-8.9-12.4-17.7-25-29.1-35.5c-15.1-14.2-34.7-23-55.1-24.6c-8.7-0.7-17.4,0-25.9,2.1v0.2
			c28.9-2.5,57.4,5.9,78.5,26.2c9.9,9.4,17.9,20.6,25.9,31.6c3.9,5.5,8,11,12.1,16.5c2.8,3.7,6.6,7.4,9,11.7l0,0
			c0.7,1.4,3.9,6.7,5.1,9.4l0,0c0.2,0.2,0.2,0.4,0.2,0.5c0.4,0.9,0.2,1.8-0.4,3.2c-0.9,2.3-2,2.7-3.5,4.4c-0.2,0.2-0.4,0.5-0.7,0.9
			c-0.5-1.8-1.1-3.5-1.8-5.3c1.4-0.4,2.8-0.7,4.3-1.2c0.9-0.2,0.7-1.4-0.2-1.4c-1.8,0-3.4,0-5.1,0.2c-0.9,0.2-1.6,0.2-2.5,0.4
			c-0.2,0-0.5,0-0.7,0.2c-0.5,0-0.9,0.2-1.4,0.2c-14,2.8-28,11.5-39,19.5c-13.7,9.8-25.7,21.5-36,34.7
			c-9.9,12.9-17.9,27.3-23.4,42.7c-2.3,6.6-6,15.8-5.3,22.9c0.2,1.1,0.4,1.9,0.9,2.8c0,0.4,0.4,0.9,0.7,1.2c0.2,0.2,0.2,0.2,0.4,0.2
			c0.4,0.4,0.7,0.5,1.2,0.7c0.5,0.4,1.1,0.7,1.6,1.1c-0.2,0-0.4,0-0.4,0.2c-4.1,3.7-9.2,2.3-14,0.7c-1.8-0.5-3.9-0.9-5.5-1.8
			c-0.4-0.2-0.7-0.4-1.1-0.5c-2.1-1.4-0.9-3.7-0.5-6.6c1.6-8.9,4.3-17.4,7.8-25.7c7.1-16.3,16.8-31.7,28-45.4
			c20.7-25.5,49.6-45.4,82.4-50c0.4,0,0.7-0.2,0.9-0.2c0.5-0.2,1.2-0.2,1.8-0.2c0.7,0,1.4-0.2,2.1-0.2c0.5,0,1.1-0.2,1.6-0.2
			c0.5,0,1.2-0.2,1.8-0.2c0.4,0,0.4-0.5,0-0.5c-1.2,0-2.5,0-3.7,0l0,0c-0.7,0-1.4,0-2,0c-0.7,0-1.4,0-2.1,0.2c-0.4,0-0.5,0-0.9,0
			c-29.6,2.1-56.2,17.6-76.6,39.2c-11.5,12.2-21.4,26.2-29.6,40.9c-7.8,14.2-14.9,30.3-16.3,46.6c0,0.2,0,0.5,0,0.7
			c-3.2-0.5-6.6-1.1-9.4-2.1c-6.7-2.8-4.8-9.2-3-14.7c2.7-9.2,7.3-18.1,12.1-26.4c9.2-15.8,20.9-30.3,33.5-43.6
			c23.8-25.2,54.1-45.9,89.3-46.4c2.8-0.2,5.7,0,8.5,0.2c0.4,0,0.5-0.5,0.4-0.7l-0.2-0.2c-43.1-6.7-80.8,21.3-107.8,52.1
			c-13.8,15.8-26.6,33-34.7,52.3c-2.3,5.7-6.9,15.4-6.2,22.7c-3-2-6.6-3.2-9.8-4.8c-2.1-1.1-3.5-2.5-4.3-4.1l0,0
			c-0.2-0.2-0.2-0.5-0.2-0.7c-0.9-2.7-0.4-6,0.4-9.4c1.9-8.5,7.3-16,12.1-23c9.9-14.9,20.4-29.3,33-42c24.5-25.2,56-45,90.9-50.9
			c0.2,0,0.2-0.2,0-0.2c-39.4,5.1-73.6,25.7-100,55.1c-13.3,14.9-24.3,31.4-33.3,49.1c-2.8,5.7-7.4,13.5-7.6,20.4
			c-19.5-1.4-32.6-20.6-44.1-34.4c-12.2-14.7-24.1-29.6-37.8-42.9c-3.2-3-6.6-5.9-9.8-8.9c-5-4.8-6.9-9.6-4.3-16.1
			c3.7-9.4,8.3-18.8,13.5-27.7c9.2-15.8,22-28.9,36.7-39.7c16-11.7,33.5-19.9,50.7-29.4c0.2,0,0-0.2,0-0.2l0,0
			c-1.4,0.5-3,1.1-4.4,1.6c-16.3,6.2-32.6,14.9-46.8,24.8c-15.4,10.6-29.1,23.8-38.8,39.9c-5.7,9.2-10.6,19.1-14.5,29.1
			c-0.4,1.1-0.7,2-0.9,2.8c-3.2-3-8.9-5-7.8-9.6c0.9-4.3,5.5-9.6,8-13.1c5.5-8.3,11.5-16.3,18.3-23.9c12.9-14.7,28-27.7,44.7-37.8
			c11.5-7.1,23.8-12.8,36.3-17c1.6-0.5,3.2-1.1,5-1.6c21.1-6.4,43.3-9,65.4-7.3c0,0,0,0,0.2,0c6.4,0.5,12.8,1.2,19.1,2.5
			c0,0,0.2-0.2,0-0.2c-35.1-9.8-70.9-5.8-103,7.6c-3,1.2-6,2.7-9,4.1c-29.1,14-54.6,35.6-73.9,61.9c-5,6.7-11.2,14.5-14.5,22.5
			c-1.6-1.1-3.7-1.2-5.1-2.7c-3.7-3.9,1.4-10.1,3.5-13.3c4.6-7.3,9.8-14.2,15.4-20.6c10.8-12.6,23.4-23.8,36.9-33.3
			c10.6-7.6,22.5-14.5,34.7-20.6c3-1.6,6.2-2.8,9.4-4.3c13.8-5.9,28.2-10.5,42.5-13.1c0.2,0,0-0.2,0-0.2
			c-34.9,5.3-69.1,19.7-97,41.3c-14,10.6-26.6,23-37,37.1c-4.8,6.2-11.7,14-13.5,21.8c-0.2,0.7-0.2,1.4-0.2,2.1
			c-1.8-1.1-3.5-2.1-5.5-3c8.7-29.1,31.4-50.3,55.3-68.1c17.7-13.1,37.2-23.9,57.1-33.7c0.2,0,0-0.4-0.2-0.2
			c-22.7,7.4-43.8,18.6-62.9,32.8c-17.9,13.1-38.5,31-48.6,52.3c-0.4-0.2-0.7-0.4-1.2-0.7c-0.2,0-0.2-0.2-0.4-0.2
			c-1.4-4.1-4.1-7.8-5.5-12.1c-1.8-5-3-10.1-4.1-15.2c-2.1-11.3-2.7-23-2.7-34.7c-0.2-22.9,2.5-45.9,7.8-68.1
			c5.1-21.4,12.4-43.3,23.4-62.6c4.8-8.5,11.9-19.7,21.5-23c0.4-0.2,0.5-0.2,0.9-0.4c0.9-0.2,1.8-0.5,2.7-0.7
			c8.5-1.9,18.4-0.7,26.8,0.4c0.5,0,0.5-0.7,0.2-0.9c-8.2-2.7-17.2-4.6-25.4-3.5c1.4-3.2,3.5-6,7.1-7.6c1.8-0.9,3.5-1.6,5.3-2.3
			c0.7-0.4,1.6-0.7,2.5-0.9c5.1-1.8,10.6-3.2,16-4.3c16.8-3,34.6-1.9,51.1,2c0.2,0,0.2-0.2,0-0.2c-17.7-8.2-37.4-9.4-56.4-5
			c-1.2,0.4-2.5,0.5-3.9,0.9c1.4-0.7,3-1.2,4.4-2s2.5-1.6,3.5-2.5c0.5-0.5,1.1-1.1,1.6-1.6c2.1-2.3,3.9-4.8,6.2-7.1
			c5.8-5.7,17-2.8,24.3-2c7.4,1.1,14.9,2.3,22.2,4.1c28.4,6.7,56.7,18.8,80.8,35.3c0.2,0.2,0.4-0.2,0.2-0.2
			c-14-10.6-28-19.9-44.1-26.8c-15.1-6.4-30.8-11.2-47-14.2c-8-1.4-16-2.5-24.1-3.2c-6.6-0.5-11.5,0.2-16,5.3
			c-0.9,1.1-1.8,2.1-2.7,3.2c-0.2-3.9,0.4-7.3,2.7-9.8c0.7-0.7,1.6-1.6,2.7-2.1c0.5-0.4,1.2-0.7,2-1.1c8.2-3.9,19.7-2.7,28.5-2.1
			c18.8,1.4,37.2,6.9,54.4,14.5c16.3,7.3,31.4,16.5,46.4,26.1c7.3,4.6,14.4,9.8,21.4,14.9c7.6,5.5,15.6,10.8,21.8,17.9
			c0,0.2,0.2,0,0.2-0.2c-6.4-8-14.5-14.2-22.5-20.4c-7.4-5.9-15.1-11.7-22.9-17.2c-16.7-11.7-34.7-22-53.9-29.1
			c-19.1-7.1-39.5-11.3-60.1-10.5c-5,0.2-10.3,0.7-14.7,2.8c0.7-4.6,1.2-9,4.4-12.4c5-5.1,14-5,20.7-4.4c12.9,0.9,25.9,4.1,38.5,7.6
			c20.4,5.8,39.9,14,58.7,23.4c14.9,7.4,27.3,16.8,40.1,27.7c15.4,13.1,26.8,29.1,39.7,44.7c0.2,0.2,0.4,0,0.2-0.2
			c-17.9-29.8-43.3-56.7-73.9-73.4c-31-16.8-67.2-31.2-102.8-33.7c-6.4-0.4-14-0.4-19.9,2.8c14.4-18.3,29.1-36.3,45.6-52.8
			c9-9,19.1-17.2,30.8-22.5c12.1-5.7,25.4-9,38.1-12.9c41.7-12.4,85.4-21.6,127.5-10.6c2.1,0.5,4.1,1.1,6.2,1.8
			c5.1,1.6,10.3,3.5,15.4,5.9c43.3,19.3,68.3,60.3,85.1,102.8c1.2,3.4,2.7,6.6,3.7,9.9c1.8,4.8,3.4,9.6,5,14.5
			c5,15.8,9,32.1,11.7,48.4c0.7,4.3,1.4,8.3,2,12.6c0.2,1.6,0.4,3,0.5,4.6c3,23.4,5.9,50.5-5.7,71.4c-0.5,0.9-1.1,1.8-1.6,2.7
			C523.2,297.8,522.9,298.5,522.3,299.2z M589.2,290.7c-1.2,0.7-2.7,1.4-4.1,2c-1.8,0.7-3.7,1.2-5.5,1.8c-6.9,1.8-14.4,2.1-21.3,2.5
			c-5.5,0.4-11.2,0.4-16.7,0.4c2.5-6.7,2.8-15.4,3.2-21.5c0.7-12.6-0.5-25.2-1.2-37.8c-0.9-13.8-2-27.8-3.4-41.7
			c0-0.2-0.2-0.2-0.2,0c0,22.3,1.1,44.9,1.6,67.2c0.2,10.8,0,22.3-3.5,32.6c-0.2,0.4-0.4,0.9-0.5,1.2c-0.7,1.6-1.6,3-2.5,3.9
			c-2.8,2.8-6.7,3.4-10.8,3.4c1.1-1.4,2-2.8,2.8-4.3c0.7-1.1,1.2-2.1,1.9-3.2c1.6-2.8,3-5.7,4.1-8.7c4.8-12.6,5-26.2,4.4-39.5
			c-0.5-15.2-2.3-30.5-4.8-45.4c0.4-12.1-0.5-24.1-2.8-35.6c-0.9-4.4-2-8.9-3.4-13.3c0-0.2-0.4-0.2-0.4,0.2
			c2.7,10.5,3.4,21.1,3.2,31.9c-1.4-6-2.8-11.9-4.4-17.9c-4.3-15.6-9.8-30.8-16.1-45.7c-6.2-20.2-15.2-39.7-26.6-58
			c-5.1-8.2-10.6-16-16.7-23.6c-5.7-7.1-11.5-14.2-19.5-18.8c-1.2-0.7-2.3-1.2-3.5-1.8c3.9-0.2,8.3,0.5,11.3,0.2
			c2.7-0.4,5.8-1.9,8.5-0.7c1.2,0.5,2.3,1.8,3.2,2.8c0.4,0.4,0.7,0.9,1.1,1.2c0.2,0.2,0.2,0.2,0.4,0.4c2.1,2.3,4.1,5,5.8,7.4
			c0.4,0.4,0.7,0.7,0.9,1.2c0.2,0.2,0.4,0.5,0.5,0.9c7.8,10.6,14.5,22.2,20.2,34.2c12.1,25.3,19.5,52.6,29.2,78.9
			c0.2,0.4,0.7,0.2,0.7-0.2c-2.1-10.3-4.6-20.7-7.6-30.8c-0.4-1.4-0.9-2.8-1.2-4.3c-6.4-21.1-14.5-41.7-25.3-60.6
			c-4.1-7.3-8.5-14.2-13.5-20.7l0,0c-0.7-0.9-1.2-1.8-2.1-2.8c-0.9-1.2-1.8-2.3-2.7-3.5c1.2,0,2.7,0,3.9,0.4
			c1.2,0.2,2.3,0.5,3.5,0.9c1.8,0.7,3.5,1.6,5,2.8c5,4.4,8.5,12.4,11.9,18.3c8.5,14.4,13.6,29.4,18.3,45.4
			c1.8,6.2,3.7,12.6,5.5,18.8c0.5,1.8,1.1,3.5,1.6,5.1c5,16.8,9.6,33.7,12.8,50.9l0,0c1.4,7.4,2.7,14.9,3.5,22.3
			c0,0.2,0.2,0.2,0.2,0c-2.8-38.6-12.8-76.4-24.6-113.1c-5.3-16.5-13.5-33.3-23.9-47.3c-2.3-3-5-5-8-6.2c3.9-5,9.4-7.6,16.1-8
			c7.8-0.4,15.6,2.1,23.2,4.1c6.9,1.8,14,3.5,20.7,5.5c14.7,4.1,29.1,8.9,43.1,15.1c12.8,5.9,24.1,13.5,36.2,20.4
			c5.1,3,10.5,5.7,16.1,7.8c3.5,1.4,7.4,2.1,11,4.1c1.4,0.7,3,1.6,4.1,2.8c1.6,1.2,2.5,3,2.5,5c-0.4,0.2-0.7,0.5-1.1,0.7
			c-0.2,0.2-0.4,0.4-0.5,0.4c-0.5,0.7-1.1,1.2-1.8,1.8c-1.2,1.1-2.7,2.1-3.5,3.4c-1.6,2.1-3,4.4-4.3,6.7c-3.7,6.6-6.9,13.3-9.9,20.2
			c-11.2,25.7-17.9,53-19.9,80.8c-1.6,24.8,0.5,50.9-7.3,74.1l0,0c-0.2,0.4-0.2,0.7-0.4,1.2c-0.2,0.5-0.4,1.1-0.5,1.4
			c0.4-2.1,0.7-4.3,0.9-6.4c1.8-13.5,2.5-26.8,0.4-40.2c0-0.4-0.5-0.2-0.5,0c1.4,12.4-0.4,24.8-2.7,36.9
			C601.2,271.8,600.2,284.7,589.2,290.7z M614.9,279.6c-0.4,0.4-0.7,0.5-1.1,0.9c0.2-0.4,0.4-0.9,0.5-1.2c0-0.2,0.2-0.2,0.2-0.4
			c0.5-1.2,1.1-2.5,1.6-3.7c5.5-13.8,8-28.5,7.6-43.6c0-0.2-0.2-0.2-0.2,0c-1.2,13.5-4.3,26.6-9.2,39c-0.4,0.9-0.7,1.6-1.1,2.5
			c-0.5,1.2-1.1,2.5-1.6,3.7c-2,4.4-4.4,8.7-8.7,11.2c-2.1,1.2-4.6,2.3-7.3,3c2.1-1.8,3.7-4.1,5-6.4l0,0c3-3.7,5.5-7.6,7.4-11.7
			c0.4-0.9,0.9-1.8,1.2-2.7c10.5-24.5,6.4-55.5,8.7-80.8c1.6-19,5.7-37.9,11.7-56c3.2-9.2,6.9-18.4,11.2-27.3
			c3.7-7.6,7.6-18.1,15.2-22.7c2.3,0.7,4.4,1.6,6.6,2.8c0.4,0.2,0.5,0.4,0.9,0.5c-0.7,0.7-1.6,1.2-2.3,2
			c-23.8,21.6-29.1,55.1-30.8,86c-1.1,20-1.2,39.9-0.7,59.9c0.4,10.3-0.5,20.4-4.1,29.3c-1.8,4.4-4.3,8.7-7.6,12.4
			C617.2,277.4,616.1,278.5,614.9,279.6z M675,286.8c1.1-4.1,2.1-8.3,3.7-12.2c2.5-6.6,5.7-12.9,9.2-19.1
			c7.1-11.9,16-22.3,26.1-31.7c0.2-0.2,0-0.4-0.2-0.4c-11.7,8-21.3,18.4-28.7,30.3c-6.7,10.8-14.2,24.8-15.4,37.9l0,0
			c-2.8,1.4-6,1.8-9.4,1.6c-10.5-0.5-20.9-5.9-30.1-10.1c-3.5-1.6-6.7-3.4-9.8-5.3c6.9-6,11.3-14,13.1-23.8
			c7.8-20.2,9-42.9,11.5-64.4c2-16.3,4.8-32.4,9.4-48.2c2.1-7.4,4.8-14.7,7.6-22c2.1-5.7,5-15.4,10.8-19.3
			c13.1-0.4,25.3,10.5,34.6,18.6c10.1,9,19.1,19.1,27.1,30c7.6,10.3,14.5,20.9,21.3,31.9c3.7,6,7.4,12.2,9.9,19
			c2.1,5.3,2.7,10.8,3.9,16.3c-4.8-3.2-10.6-1.9-15.8-0.2c-1.4,0.4-3,0.7-4.4,1.1c-7.6,2.1-15.1,5-22,8.7
			c-13.5,7.3-25.2,17.5-34.4,29.6c-5,6.4-9,13.3-12.2,20.7c-1.6,3.5-3,7.4-5.1,10.6C675.2,286.6,675,286.6,675,286.8z M758.1,335.4
			c-3.5,1.9-7.3,3.5-11.2,4.6c-4.6,1.4-9,2.7-12.1-2.1c-2-3.2-3-6.9-4.3-10.5c-2.7-7.4-7.3-12.2-13.1-15.6
			c9.2,1.1,18.6,1.4,27.7,3.5c4.4,1.1,9.4,2.3,12.8,5.7c3,2.8,4.6,6.7,6.2,10.6C762.2,332.7,760.2,334.2,758.1,335.4z M767.3,328
			c-2.1-5-4.8-9.8-9.6-12.8c-6.9-4.3-16-5.3-23.8-6.2c-17.4-2-34.9-2.1-49.6-12.1c8.5,1.9,17.9,1.4,26.1,0.7
			c17.9-1.8,36.3-3.9,50.9,8.9c3,2.7,5.1,5.5,7.4,8.7c0.7,0.9,1.4,1.9,2.3,2.7C770.7,321.4,770,324.8,767.3,328z M781.2,302.2
			c-0.9,2.5-2.3,7.4-4.4,9.2c-0.7,0.5-1.2,0.9-1.8,1.1c-1.2,0.4-2.1,0-3.2-0.9c-0.9-0.7-1.6-1.6-2.5-2.7
			c-6.2-7.6-14.7-13.1-24.3-15.4c-11.7-3-23.9-1.1-35.8,0.2c-9.9,0.9-18.8,0.5-27.7-2.3c2.8-0.5,5.5-1.8,8.3-3.4
			c7.1-4.1,13.7-8,21.5-10.5c15.6-5.1,32.6-5.3,48.4-0.5c7.6,2.3,13.8,6.7,20.9,9.9C783.1,291.4,782.8,297.5,781.2,302.2z
			 M782.9,281.2c-0.4,2.3,0,1.2-2,0.5c-5.5-2.1-10.5-5.9-16.1-8c-5.7-2.1-11.5-3.5-17.5-4.3c-12.2-1.6-24.5-0.4-36,3.5
			c-5.7,1.8-11.2,4.4-16.3,7.4c-5.3,3.2-10.5,8.3-16.8,9.2c1.2-1.8,2.3-3.9,3.4-5.9c1.4-1.8,2.8-3.5,4.4-5.3
			c10.5-9.2,22.2-17.5,35.5-21.4c8.9-2.7,18.8-2.7,28.2-3.2c7.8-0.4,15.6-0.5,23.4,0.2c2.3,4.4,5,8.7,6.7,13.6
			c1.1,2.8,2,5.7,2.7,8.7C782.2,277.4,783.1,279.9,782.9,281.2z"/>
		<g>
			<path fill="#C08A32" d="M745.2,315.2c-9-2.1-18.4-2.5-27.7-3.5c5.9,3.4,10.3,8.3,13.1,15.6c1.2,3.5,2.3,7.3,4.3,10.5
				c3,4.8,7.4,3.5,12.1,2.1c3.9-1.1,7.6-2.7,11.2-4.6c2.1-1.2,4.1-2.7,6.2-3.9c-1.6-3.7-3.4-7.8-6.2-10.6
				C754.6,317.5,749.8,316.3,745.2,315.2z"/>
			<path fill="#C08A32" d="M768.8,315.2c-2.3-3-4.6-6-7.4-8.7c-14.5-12.8-33-10.6-50.9-8.9c-8.2,0.7-17.5,1.2-26.1-0.7
				c14.7,9.9,32.3,9.9,49.6,12.1c7.8,0.9,16.8,1.9,23.8,6.2c4.8,3,7.4,7.8,9.6,12.8c2.7-3.2,3.2-6.4,3.7-10.3
				C770.2,317,769.5,316.1,768.8,315.2z"/>
			<path fill="#C08A32" d="M759.7,276.9c-15.8-4.8-32.6-4.6-48.4,0.5c-7.8,2.5-14.4,6.4-21.5,10.5c-2.7,1.6-5.5,2.8-8.3,3.4
				c8.9,3,17.7,3.4,27.7,2.3c11.9-1.1,24.1-3,35.8-0.2c9.4,2.3,18.1,8,24.3,15.4c0.7,1.1,1.6,1.9,2.5,2.7c0.9,0.7,1.9,1.2,3.2,0.9
				c0.5-0.2,1.2-0.5,1.8-1.1c2.1-1.8,3.5-6.9,4.4-9.2c1.6-4.8,1.9-10.8-0.5-15.4C773.4,283.6,767.3,279.4,759.7,276.9z"/>
			<path fill="#C08A32" d="M781.9,276.2c-0.7-2.8-1.6-5.9-2.7-8.7c-1.8-4.8-4.4-9.2-6.7-13.6c-7.8-0.7-15.4-0.7-23.4-0.2
				c-9.2,0.5-19.1,0.5-28.2,3.2c-13.1,3.9-24.8,12.2-35.5,21.4c-1.4,1.8-3,3.5-4.4,5.3c-0.9,2.1-2,4.1-3.4,5.9
				c6.4-0.9,11.5-5.9,16.8-9.2c5.1-3.2,10.6-5.7,16.3-7.4c11.7-3.9,23.9-5,36-3.5c6,0.7,11.9,2.1,17.5,4.3c5.7,2.1,10.6,5.9,16.1,8
				c2,0.7,1.6,1.8,2-0.5C783.1,279.9,782.2,277.4,781.9,276.2z"/>
			<path fill="#C08A32" d="M773.5,239.8c-19.7-3.5-39.5,1.1-56.7,11.3c-5.7,3.4-11,7.4-16,11.7c6-4.3,12.4-7.6,19.1-9.6
				c9.2-3,19.5-3.2,29.3-3.7c7.1-0.4,14.2-0.5,21.1,0c1.6,0.2,3,0.2,4.4,0.4c1.2,0.2,2.7,0.4,3.9,0.5
				C777.6,246.8,776,242.3,773.5,239.8L773.5,239.8z"/>
			<path fill="#C08A32" d="M763.6,217.9L763.6,217.9c-8.2,0-16.3,3-23.8,6c-8.2,3.4-15.8,7.8-22.7,12.9
				c-13.3,9.8-24.1,22.9-31.4,37.6c21.3-26.6,53.5-46.1,88.3-39.2c-0.4-5-2.5-10.5-5.5-14.2C767,219.5,765.4,218.4,763.6,217.9z"/>
			<path fill="#C08A32" d="M629.8,234.9c-0.5-20-0.4-39.9,0.7-59.9c1.6-31,7.1-64.5,30.8-86c0.7-0.7,1.6-1.4,2.3-2
				c-0.4-0.2-0.5-0.4-0.9-0.5c-2.1-1.2-4.3-2.1-6.6-2.8c-7.6,4.6-11.5,14.9-15.2,22.7c-4.3,8.9-8,17.9-11.2,27.3
				c-6.2,18.1-10.1,36.9-11.7,56c-2.3,25.4,1.8,56.4-8.7,80.8c-0.4,0.9-0.7,1.8-1.2,2.7c-2,4.1-4.4,8-7.4,11.7l0,0
				c-1.2,2.3-2.8,4.4-5,6.4c2.7-0.7,5.1-1.6,7.3-3c4.1-2.5,6.6-6.7,8.7-11.2c0.5-1.2,1.1-2.5,1.6-3.7c0.4-0.9,0.7-1.8,1.1-2.5
				c5-12.4,8.2-25.7,9.2-39c0-0.2,0.2-0.2,0.2,0c0.2,15.1-2.1,29.8-7.6,43.6c-0.5,1.2-1.1,2.5-1.6,3.7c0,0.2-0.2,0.2-0.2,0.4
				c-0.2,0.4-0.4,0.9-0.5,1.2c0.4-0.4,0.7-0.5,1.1-0.9c1.1-1.1,2.1-2.1,3.2-3c3.4-3.7,5.8-7.8,7.6-12.4
				C629.2,255.1,630.1,245,629.8,234.9z"/>
			<path fill="#C08A32" d="M634.2,192.2c-0.4,10.5-0.5,20.9-0.4,31.6c0,3.9,0.2,7.6,0.4,11.5c3.9-19.9,5.1-40.2,8.2-60.3
				c2.7-17.5,7.3-34.7,13.7-51.4c2.7-6.9,5.5-16.8,11.2-23c2-2.1,4.1-3.7,6.9-4.6h0.2c-2.5-2.5-5.3-4.4-8.3-5.5
				C636.9,115.2,635.4,156.5,634.2,192.2z"/>
			<path fill="#C08A32" d="M692.5,255.1c9.2-12.1,20.9-22.3,34.4-29.6c6.9-3.7,14.4-6.7,22-8.7c1.4-0.4,3-0.7,4.4-1.1
				c5.3-1.8,11-3,15.8,0.2c-1.2-5.5-2-11-3.9-16.3c-2.7-6.6-6.4-12.8-9.9-19c-6.6-11-13.5-21.6-21.3-31.9c-8.2-10.8-17-20.9-27.1-30
				c-9.2-8.2-21.5-19.1-34.6-18.6c-5.8,3.9-8.7,13.6-10.8,19.3c-2.8,7.3-5.3,14.5-7.6,22c-4.6,15.8-7.6,31.9-9.4,48.2
				c-2.5,21.5-3.7,44.1-11.5,64.4c-1.8,9.6-6.2,17.7-13.1,23.8c3,2,6.4,3.7,9.8,5.3c9.2,4.4,19.9,9.6,30.1,10.1
				c3.4,0.2,6.6-0.2,9.4-1.6l0,0c1.2-13.1,8.7-27.1,15.4-37.9c7.4-11.9,17.2-22.3,28.7-30.3c0.2-0.2,0.4,0.2,0.2,0.4
				c-9.9,9.4-19,19.9-26.1,31.7c-3.5,6-6.7,12.4-9.2,19.1c-1.6,4.1-2.5,8.2-3.7,12.2c0-0.2,0.2-0.2,0.2-0.4
				c2.1-3.2,3.5-7.1,5.1-10.6C683.5,268.4,687.7,261.5,692.5,255.1z"/>
			<path fill="#C08A32" d="M605.7,223.7c0-0.4,0.5-0.4,0.5,0c2.1,13.5,1.4,26.8-0.4,40.2c-0.4,2.1-0.5,4.3-0.9,6.4
				c0.2-0.5,0.4-0.9,0.5-1.4c0.2-0.4,0.4-0.7,0.4-1.2l0,0c7.8-23.2,5.7-49.3,7.3-74.1c2-27.8,8.7-55.3,19.9-80.8
				c3-6.9,6.4-13.6,9.9-20.2c1.2-2.3,2.7-4.6,4.3-6.7c1.1-1.2,2.3-2.3,3.5-3.4c0.7-0.5,1.2-1.2,1.8-1.8c0.2-0.2,0.4-0.4,0.5-0.4
				c0.4-0.2,0.7-0.5,1.1-0.7c-0.2-2.1-0.9-3.7-2.5-5c-1.2-1.2-2.7-2.1-4.1-2.8c-3.4-1.8-7.3-2.7-11-4.1c-5.5-2.1-10.8-4.8-16.1-7.8
				c-12.1-6.9-23.6-14.7-36.2-20.4c-13.8-6.4-28.4-11-43.1-15.1c-6.9-1.9-13.8-3.7-20.7-5.5c-7.4-2-15.2-4.4-23.2-4.1
				c-6.7,0.4-12.2,3-16.1,8c3,1.2,5.8,3.2,8,6.2c10.5,14,18.6,30.7,23.9,47.3c11.9,36.7,21.8,74.5,24.6,113.1c0,0.2-0.2,0.2-0.2,0
				c-0.9-7.4-2.1-14.9-3.5-22.3l0,0c-3.4-17.2-8-34-12.8-50.9c-0.5-1.8-1.1-3.5-1.6-5.1c-1.8-6.4-3.7-12.6-5.5-18.8
				c-4.6-16-9.7-31-18.3-45.4c-3.4-5.7-6.7-13.8-11.9-18.3c-1.4-1.2-3-2.3-5-2.8c-1.1-0.5-2.3-0.7-3.5-0.9c-1.2-0.2-2.7-0.4-3.9-0.4
				c0.9,1.2,1.8,2.5,2.7,3.5c0.7,1.1,1.4,1.9,2.1,2.8l0,0c5,6.6,9.4,13.5,13.5,20.7c10.8,19,19,39.5,25.4,60.6
				c0.4,1.4,0.9,2.8,1.2,4.3c3,10.3,5.5,20.6,7.6,30.8c0.2,0.4-0.5,0.5-0.7,0.2c-9.8-26.4-17.2-53.5-29.3-78.9
				c-5.7-12.1-12.4-23.6-20.2-34.2c-0.2-0.4-0.4-0.5-0.5-0.9c-0.4-0.4-0.5-0.7-0.9-1.2c-2-2.5-3.9-5-5.9-7.4
				c-0.2-0.2-0.2-0.2-0.4-0.4c-0.4-0.4-0.7-0.9-1.1-1.2c-0.9-1.1-2-2.3-3.2-2.8c-2.7-1.2-5.9,0.4-8.5,0.7c-3,0.4-7.4-0.4-11.3-0.2
				c1.2,0.5,2.3,1.1,3.5,1.8c7.8,4.6,13.8,11.7,19.5,18.8c6,7.4,11.5,15.4,16.7,23.6c11.3,18.1,20.4,37.6,26.6,58
				c6.4,14.9,11.9,30.1,16.1,45.7c1.6,5.9,3.2,11.9,4.4,17.9c0.2-10.8-0.7-21.4-3.2-31.9c0-0.2,0.4-0.4,0.4-0.2
				c1.2,4.4,2.5,8.9,3.4,13.3c2.3,11.7,3.2,23.8,2.8,35.6c2.7,15.1,4.3,30.3,4.8,45.4c0.5,13.3,0.4,26.9-4.4,39.5
				c-1.2,3-2.5,6-4.1,8.7c-0.5,1.1-1.2,2.1-2,3.2c-0.9,1.4-2,2.8-2.8,4.3c4.1,0,8-0.5,10.8-3.4c0.9-1.1,1.8-2.3,2.5-3.9
				c0.2-0.4,0.4-0.7,0.5-1.2c3.5-10.3,3.7-21.8,3.5-32.6c-0.4-22.3-1.6-44.9-1.6-67.2c0-0.2,0.2-0.2,0.2,0
				c1.4,13.8,2.5,27.8,3.4,41.7c0.9,12.6,2,25.2,1.2,37.8c-0.4,6.2-0.5,14.7-3.2,21.5c5.5,0,11.2,0,16.7-0.4
				c6.7-0.5,14.4-0.9,21.3-2.5c2-0.5,3.7-1.1,5.5-1.8c1.4-0.5,2.8-1.2,4.1-2c11-6,12.1-19,14-30.1
				C605.3,248.4,607.3,236.1,605.7,223.7z"/>
			<path fill="#C08A32" d="M531,223c-0.2-1.6-0.4-3-0.5-4.6c-0.5-4.3-1.2-8.5-2-12.6c-2.7-16.3-6.7-32.6-11.7-48.4
				c-1.6-5-3.2-9.8-5-14.5c-1.2-3.4-2.5-6.6-3.7-9.9c-17-42.5-41.8-83.5-85.1-102.8c-5.1-2.3-10.3-4.3-15.4-5.9
				c-2.1-0.7-4.1-1.2-6.2-1.8c-42-11-85.6-2-127.5,10.6c-12.8,3.9-25.9,7.3-38.1,12.9c-11.7,5.5-21.6,13.5-30.8,22.5
				c-16.5,16.3-31.2,34.6-45.6,52.8c5.9-3.2,13.3-3.2,19.9-2.8c35.6,2.5,71.8,16.7,102.8,33.7c30.7,16.7,56,43.6,73.9,73.4
				c0.2,0.2-0.2,0.4-0.2,0.2c-12.9-15.4-24.3-31.4-39.7-44.7c-12.8-10.8-25-20.2-40.1-27.7c-19-9.4-38.5-17.5-58.7-23.4
				c-12.4-3.5-25.3-6.7-38.5-7.6c-6.7-0.5-15.8-0.9-20.7,4.4c-3.2,3.4-3.7,8-4.4,12.4c4.4-2.1,9.8-2.5,14.7-2.8
				c20.4-0.9,41,3.2,60.1,10.5c19.1,7.1,37.2,17.4,53.9,29.1c7.8,5.5,15.4,11.3,22.9,17.2c8,6.4,16.1,12.4,22.5,20.4
				c0,0.2,0,0.2-0.2,0.2c-6.2-7.1-14.2-12.4-21.8-17.9c-7.1-5-14.2-10.1-21.4-14.9c-14.9-9.6-30.1-18.8-46.4-26.1
				c-17.2-7.6-35.6-13.1-54.4-14.5c-8.9-0.7-20.4-1.8-28.5,2.1c-0.7,0.4-1.4,0.7-2,1.1c-1.1,0.7-2,1.4-2.7,2.1
				c-2.1,2.5-2.8,5.9-2.7,9.8c0.9-1.1,1.6-2.1,2.7-3.2c4.6-5.1,9.4-5.9,16-5.3c8.2,0.7,16.1,1.8,24.1,3.2c16.1,3,31.7,7.8,47,14.2
				c16.1,6.9,30.3,16.1,44.1,26.8c0.2,0.2,0,0.4-0.2,0.2c-24.1-16.5-52.5-28.5-80.8-35.3c-7.3-1.8-14.7-3-22.2-4.1
				c-7.3-0.9-18.4-3.9-24.3,2c-2.3,2.3-4.1,4.8-6.2,7.1c-0.5,0.5-1.1,1.1-1.6,1.6c-1.1,0.9-2.3,1.8-3.5,2.5c-1.4,0.7-3,1.2-4.4,1.9
				c1.4-0.4,2.7-0.7,3.9-0.9c19-4.4,38.6-3.2,56.4,5c0.2,0,0,0.2,0,0.2c-16.7-3.9-34.2-5-51.1-2c-5.3,1.1-10.8,2.3-16,4.3
				c-0.9,0.4-1.6,0.5-2.5,0.9c-1.8,0.7-3.5,1.4-5.3,2.3c-3.4,1.8-5.5,4.4-7.1,7.6c8.3-0.9,17.2,1.1,25.4,3.5
				c0.5,0.2,0.4,1.1-0.2,0.9c-8.3-1.1-18.3-2.3-26.8-0.4c-0.9,0.2-1.8,0.4-2.7,0.7c-0.4,0.2-0.5,0.2-0.9,0.4
				c-9.8,3.4-16.7,14.5-21.5,23c-11,19.3-18.3,41.1-23.4,62.6c-5.3,22.3-8,45.2-7.8,68.1c0.2,11.5,0.7,23.2,2.7,34.7
				c0.9,5.1,2.1,10.3,4.1,15.2c1.6,4.1,4.1,8,5.5,12.1c0.2,0,0.2,0.2,0.4,0.2c0.4,0.2,0.7,0.4,1.2,0.7
				c10.1-21.3,30.8-39.2,48.6-52.3c19.1-14.2,40.4-25.3,62.9-32.8c0.2,0,0.2,0.2,0.2,0.2c-19.9,9.8-39.4,20.6-57.1,33.7
				c-23.9,17.7-46.6,39-55.3,68.1c2,0.9,3.7,1.9,5.5,3c0-0.7,0.2-1.4,0.2-2.1c1.8-7.8,8.7-15.4,13.5-21.8c10.6-14,23.2-26.2,37-37.1
				c28-21.4,62.2-36,97-41.3c0.2,0,0.2,0.2,0,0.2c-14.4,2.7-28.7,7.1-42.5,13.1c-3.2,1.4-6.2,2.7-9.4,4.3
				c-12.4,5.8-24.1,12.9-34.7,20.6c-13.5,9.6-26.1,20.7-36.9,33.3c-5.7,6.6-10.8,13.5-15.4,20.6c-2.1,3.2-7.3,9.6-3.5,13.3
				c1.4,1.4,3.4,1.6,5.1,2.7c3.4-8,9.6-15.6,14.5-22.5c19.1-26.1,44.8-47.9,73.9-61.9c3-1.4,6-2.8,9-4.1
				c32.3-13.5,67.9-17.4,103-7.6c0.2,0,0,0.2,0,0.2c-6.4-1.2-12.8-1.9-19.1-2.5c0,0,0,0-0.2,0c-22.2-1.6-44.3,0.9-65.4,7.3
				c-1.6,0.5-3.4,1.1-5,1.6c-12.6,4.3-24.8,9.9-36.3,17c-16.7,10.3-31.7,23-44.7,37.8c-6.7,7.4-12.8,15.6-18.3,23.9
				c-2.3,3.5-6.9,8.9-8,13.1c-1.1,4.6,4.6,6.6,7.8,9.6c0.2-0.9,0.5-1.9,0.9-2.8c3.9-10.1,8.9-20,14.5-29.1
				c9.8-16.1,23.4-29.1,38.8-39.9c14.2-9.9,30.5-18.6,46.8-24.8c1.4-0.5,3-1.1,4.4-1.6l0,0c0.2,0,0.2,0.2,0,0.2
				c-17.2,9.6-34.7,17.7-50.7,29.4c-14.7,10.8-27.5,23.9-36.7,39.7c-5.1,8.7-9.8,18.1-13.5,27.7c-2.5,6.7-0.7,11.5,4.3,16.1
				c3.2,3,6.6,5.9,9.8,8.9c13.7,13.3,25.5,28.4,37.8,42.9c11.5,13.8,24.6,33,44.1,34.4c0.2-6.9,4.8-14.7,7.6-20.4
				c9-17.7,19.9-34.2,33.3-49.1c26.2-29.3,60.6-49.8,100-55.1c0.2,0,0.2,0.2,0,0.2c-35.1,5.8-66.5,25.7-90.9,50.9
				c-12.4,12.8-23,27.1-33,42c-4.8,7.1-10.1,14.5-12.1,23c-0.7,3.4-1.2,6.6-0.4,9.4c0,0.2,0.2,0.5,0.2,0.7l0,0
				c0.7,1.6,2.1,3,4.3,4.1c3.2,1.6,6.7,2.8,9.8,4.8c-0.7-7.3,3.9-17,6.2-22.7c8.2-19.3,20.9-36.5,34.7-52.3
				c26.9-30.7,64.5-58.9,107.8-52.1c0.2,0,0.2,0,0.2,0.2c0.2,0.2,0,0.7-0.4,0.7c-2.8-0.2-5.7-0.4-8.5-0.2
				c-35.3,0.5-65.6,21.3-89.3,46.4c-12.6,13.3-24.3,27.8-33.5,43.6c-4.8,8.3-9.4,17.2-12.1,26.4c-1.6,5.5-3.7,12.1,3,14.7
				c2.8,1.2,6.2,1.6,9.4,2.1c0-0.2,0-0.5,0-0.7c1.2-16.3,8.3-32.4,16.3-46.6c8.2-14.7,18.1-28.7,29.6-40.9
				c20.4-21.4,47-37,76.6-39.2c0.4,0,0.5,0,0.9,0c0.7,0,1.4,0,2.1-0.2c0.7,0,1.4,0,1.9,0l0,0c1.2,0,2.5,0,3.7,0c0.4,0,0.4,0.4,0,0.5
				c-0.5,0-1.2,0-1.8,0.2c-0.5,0-1.1,0-1.6,0.2c-0.7,0-1.4,0.2-2.1,0.2s-1.2,0.2-1.8,0.2c-0.4,0-0.7,0-0.9,0.2
				c-32.8,4.6-61.7,24.5-82.4,50c-11.2,13.7-20.9,29.1-28,45.4c-3.5,8.2-6.4,16.8-7.8,25.7c-0.5,3-1.6,5.1,0.5,6.6
				c0.4,0.2,0.7,0.4,1.1,0.5c1.8,0.7,3.7,1.1,5.5,1.8c4.6,1.6,9.8,3.2,14-0.7c0.2-0.2,0.4-0.2,0.4-0.2c-0.5-0.4-1.1-0.7-1.6-1.1
				c-0.4-0.2-0.9-0.4-1.2-0.7c-0.2,0-0.2-0.2-0.4-0.2c-0.5-0.4-0.7-0.7-0.7-1.2c-0.5-0.7-0.7-1.8-0.9-2.8c-0.7-7.1,3-16.3,5.3-22.9
				c5.5-15.4,13.5-29.8,23.4-42.7c10.3-13.3,22.3-24.8,36-34.7c11-7.8,25-16.5,39-19.5c0.5-0.2,0.9-0.2,1.4-0.2
				c0.2,0,0.5-0.2,0.7-0.2c0.9-0.2,1.6-0.2,2.5-0.4c1.8-0.2,3.5-0.4,5.1-0.2c0.9,0,1.1,1.2,0.2,1.4c-1.4,0.4-2.8,0.9-4.3,1.2
				c0.7,1.8,1.2,3.5,1.8,5.3c0.2-0.4,0.4-0.5,0.7-0.9c1.6-1.8,2.7-2.1,3.5-4.4c0.5-1.4,0.7-2.1,0.4-3.2c0-0.2-0.2-0.4-0.2-0.5l0,0
				c-1.2-2.8-4.3-8.2-5.1-9.4l0,0c-2.5-4.3-6.2-7.8-9-11.7c-4.1-5.3-8.2-11-12.1-16.5c-8-11-16-22.2-25.9-31.6
				c-21.1-20.2-49.6-28.7-78.5-26.2c-0.2,0-0.2-0.2,0-0.2c8.5-2.1,17.4-2.8,25.9-2.1c20.4,1.6,40.1,10.5,55.1,24.6
				c11.2,10.5,20,23,29.1,35.5c4.3,5.8,8.5,11.7,12.9,17.6c-3-8-5.7-16.1-8.7-24.1c-4.3-7.3-8.7-14.5-14.2-21.1
				c-8.5-10.3-18.4-19.1-29.8-26.4c-0.2-0.2,0-0.4,0.2-0.2c11.7,5.8,23.6,14.4,33.2,24.6c-9.4-15.6-22.3-28.9-37.4-38.6
				c-15.4-9.9-32.8-15.6-51.1-18.3c-18.3-2.8-37.6-3.2-55.7,1.2c-0.2,0-0.2-0.2,0-0.2c34.9-11.3,77.1-6.7,108.1,12.9
				c16,10.1,29.6,23.8,39.4,39.9c5.3,8.7,9.2,17.9,12.6,27.3c0.2,0.4,0.2,0.5,0.4,0.9c3.5,9.8,7.1,19.7,9,29.8
				c1.1,1.6,2,3.4,2.5,5.3c5.7-10.8,6.9-23,9.9-34.9c1.4-5.8,3.5-11.3,6.4-16.7c0.4-0.7,0.7-1.4,1.2-1.9c0.7-1.1,1.4-2.1,1.9-3
				c0.7-1.1,1.4-2.1,2.1-3.2s1.2-2.1,1.8-3.2c0.5-1.1,0.9-2.1,1.2-3.2c0.4-1.1,0.7-2.1,0.7-3.4c0.2-0.5,0.2-1.1,0.2-1.6
				c0.2-4.3-0.7-8.7-2.1-13.1c-1.6-5-4.1-9.9-6.7-14.7l0,0c-2.1-3.9-4.4-7.4-6.4-10.6c-5.1-8.2-10.8-16-17.2-23.2
				c-2.5-2.8-5-5.7-7.6-8.5c-2.7-2.8-5.1-5.5-8-8.2c-15.8-15.4-33.5-29.1-52.1-41c-43.4-27.1-92-41.8-142.3-49.3v-0.2
				c30,0.5,59.6,7.3,87.6,17.7c32.8,12.4,64.5,30.3,91.8,53c-6.6-7.8-13.7-15.1-21.3-22c-13.7-12.6-28.9-22.9-44.3-33.1
				c-8.2-5.5-16.5-10.8-25-15.8c-8.7-5.1-17.9-9-27.1-13.3l0,0c19.1,5,37,15.8,53.7,26.2c16,10.1,31.7,20.4,45.7,33
				c13.8,12.4,26.6,26.6,37.2,42.2c6.6,6.6,12.8,13.3,18.6,20.4c2.5,3,5,6.2,7.1,9.4c-0.2-0.2-0.2-0.5-0.4-0.7
				c-6.7-13.8-14.7-26.8-23.8-39.2c-18.6-25.4-41.3-48.9-65.2-69.3c0,0,0-0.2,0,0c27.1,22,52.3,44.9,72.5,73.6
				c9.8,14,18.3,28.7,24.8,44.5c1.4,3.4,2.8,6.7,4.1,10.3c0.9,1.8,2,3.5,2.8,5.3c2.3,4.8,4.8,9.9,6.4,15.2c-0.4-8.3-3.9-17-6.4-24.1
				c-4.1-11.5-9-22.7-14.5-33.7c-11.2-22-24.5-43.1-40.4-61.9c-0.2-0.2,0-0.4,0.2-0.2c18.3,20.2,34.2,42.4,46.1,67
				c5.8,12.2,11,24.8,15.4,37.6c2.8,8.3,4.8,17.5,1.4,25.2c0,2.5-0.2,5-0.9,7.4c3.2-1.4,6.2-3.4,8-6c3.7-5.8,1.4-14.7,0.2-20.9
				c-2.3-12.6-6.6-24.8-11.9-36.5c-10.6-23.4-25.3-44.5-39.9-65.4c0-0.2,0.2-0.2,0.2-0.2c18.4,23.2,37.1,47.2,47.9,75
				c5,12.8,10.1,28.2,9.2,42c-0.5,9.8-7.4,14-15.4,16.3c-0.7,1.4-1.4,2.8-2.3,4.3c9.6-1.1,19-6.2,27.3-10.8
				c11.7-6.4,23.8-10.1,36.3-14.4c14.4-5,25-14.2,36-24.3c5.5-5.1,11-10.5,16-16.1c0.9-1.1,1.8-2.1,2.7-3.2c1.4-1.8,2.7-3.5,3.9-5.5
				c0.5-0.7,0.9-1.4,1.4-2.1c0.5-0.9,1.1-1.8,1.6-2.7C536.7,273.5,533.9,246.4,531,223z"/>
			<path fill="#C08A32" d="M485.8,79.4c-1.4-2.7-3-5.3-4.6-8c-4.6-7.8-9.8-15.4-15.2-22.7c-5.7-7.4-11.7-15.8-19.7-21.1
				c-3.4-2.3-6.9-3.7-10.5-4.4c-0.5-0.2-1.2-0.2-1.8-0.4c-4.8-0.7-9.9-0.4-15.2,0.2c-0.2,0-0.4,0-0.5,0c9.4,3.7,18.4,8.3,26.9,14
				C462.1,48.2,475.2,62.9,485.8,79.4z"/>
			<path fill="#C08A32" d="M426.4,527.9c-2.1-1.2-4.3-2.7-6.2-4.3c-8.3-6.7-14.2-17.9-23.8-22.3c8.5,13.7,13.3,31.4,26.9,39.7
				c1.6,0.9,3.5,1.6,5.3,2.7c3.4-3.5,7.1-7.6,4.4-11.9C431.9,529.9,428.4,529,426.4,527.9z"/>
			<path fill="#C08A32" d="M427.3,547.6c-0.4-0.4-0.9-0.7-1.4-0.9c-1.6-0.7-3.5-1.4-4.8-2.1c-3.7-2.3-7.1-5.3-9.9-8.9
				c-8.3-10.3-12.6-24.8-20-36c-0.4-0.5-0.7-1.1-1.1-1.4c-2-2.7-4.1-5.3-6.6-7.4c0.2,0.4,0.4,0.7,0.5,1.1c3.2,8.2,3.7,17,4.1,25.7
				c0.4,9,0.4,18.1,2.8,26.8c2.7,9.4,8,15.6,15.8,20.9c6.4-1.8,12.4-4.6,17.4-9c2-1.8,5.7-4.4,4.3-7.4
				C428.2,548.5,427.9,547.9,427.3,547.6z"/>
			<path fill="#C08A32" d="M389.7,551.8c-3.2-7.1-4.3-14.7-4.8-22.5c-0.7-10.8,0-22-2.7-32.6c-0.5-2.3-1.2-4.4-2.1-6.6
				c-1.1,7.6-3,15.1-5,22.7c-4.1,16.1-7.6,33.9-6.2,50.5c0.4,4.4,1.6,7.6,3.2,11.5c9.8-1.6,20.7-0.7,29.6-5.3
				c0.9-0.5,1.8-1.1,2.7-1.6c-0.7-0.5-1.4-1.1-2.1-1.6C396.8,562.8,392.6,558.2,389.7,551.8z"/>
			<path fill="#C08A32" d="M367.8,576c-1.1-2.3-2-4.8-2.3-7.3c-1.1-5.8-0.9-12.1-0.5-17.9c0.9-13.8,3.2-27.5,6.9-40.9
				c2.1-8,4.1-15.8,5-23.6c0-0.5,0.2-0.9,0.2-1.4s0-1.1,0.2-1.8c0.2-1.6,0.2-3.2,0-4.8c-0.2-4.3-0.7-8.7-2-13.1
				c-1.1-3.7-2.5-7.4-4.1-10.8c0.2,1.2,0.2,2.3,0.4,3.5c0.2,4.1,0.2,8-0.4,12.1c0,0.2,0,0.4,0,0.7c-1.1,9-3.5,18.1-6.4,26.8
				c-4.8,14.5-10.8,29.1-12.6,44.3c-0.9,7.3-1.2,15.2,1.2,22.3c2.3,6.7,7.3,12.1,12.1,17c0.7-0.2,1.4-0.4,2.1-0.7
				c1.2-0.7,1.8-1.2,1.8-1.8s-0.4-1.2-0.9-2.3C367.8,576.1,367.8,576,367.8,576z"/>
			<path fill="#C08A32" d="M354.1,514.6c4.6-14,10.1-27.8,12.4-42.4c1.1-7.1,1.4-14.4,0.4-21.4c-0.2-1.6-0.5-3.4-0.9-5.3
				c-0.7-1.2-1.4-2.3-2.3-3.5c-5.5,1.6-11,3.5-16.3,6.4c-6.2,3.2-12.1,6.9-17.9,10.6c-11.5,7.6-22.2,16.8-31.6,26.9
				c-9.4,10.1-17.4,21.4-23.8,33.7c-3.4,6.4-6.2,12.9-8.5,19.5c-1.1,3.2-2.1,6.4-3,9.6c-0.4,1.1-2.1,7.1-1.8,10.8
				c0.2,0,0.4,0,0.7,0.2c8.3,3.7,16,9,24.5,12.4c7.6,3,16.1,3.9,24.3,5c16.7,2.5,33.5,4.8,50.5,4.4c-7.4-7.6-12.8-15.2-13.5-26.6
				C346.3,541.2,349.9,527.6,354.1,514.6z"/>
		</g>
		<path fill="#EDC475" d="M81.3,392.1L81.3,392.1c5-8.3,10.6-16.1,16.8-23.6c12.9-15.4,28.2-27.3,44.5-39c0.2-0.2,0-0.4-0.2-0.4
			c-18.6,8.3-35.6,21.8-49.8,36.3c-8.3,8.7-18.4,19.5-25.5,31.2c1.4,2.8,3,5.7,4.1,8.7c0.2,0,0.2,0.2,0.4,0.2
			c0.4,0.2,0.7,0.4,1.2,0.7C75.1,401.3,77.9,396.6,81.3,392.1z M109.3,421.9c0-0.2,0.2-0.4,0.2-0.4c0-0.2,0.2-0.2,0.2-0.4
			c1.8-3.2,3.5-6.6,5.5-9.6c9.7-16.1,23.4-29.1,38.8-39.9c14.2-9.9,30.5-18.6,46.8-24.8c1.4-0.5,3-1.1,4.4-1.6l0,0
			c0.2,0,0.2,0.2,0,0.2c-1.6,0.9-3.4,1.8-5,2.7c12.9-5.1,26.4-8.9,40.1-11c9.6-1.6,19.9-2.3,29.8-1.2c6.2,1.8,12.2,4.1,17.9,6.2
			c4.4,1.6,9,3.2,13.5,5.1c1.4,0.9,2.8,1.9,4.3,2.8c0.9,0.7,1.8,1.6,2.7,2.5c5.5,3.4,10.8,7.3,15.6,11.7c11.2,10.5,20,23,29.1,35.5
			c1.4,2.1,3,4.1,4.4,6.2c2.7,3.5,5.5,6.9,8.2,10.5c-2.8-7.6-5.5-15.4-8.3-23.2c-4.3-7.3-8.7-14.5-14.2-21.1
			c-8.5-10.3-18.4-19.1-29.8-26.4c-0.2-0.2,0-0.4,0.2-0.2c11.7,5.8,23.6,14.4,33.2,24.6c-9.4-15.6-22.3-28.9-37.4-38.6
			c-15.4-9.9-32.8-15.6-51.1-18.3c-18.3-2.8-37.6-3.2-55.7,1.2c-0.2,0-0.2-0.2,0-0.2c17.4-5.7,36.5-7.3,55.1-5.1
			c-27.8-3.5-56.4,1.1-78,15.4c-0.2,0.2,0,0.5,0.2,0.4c17.2-10.1,39.4-11.7,60.4-9.4c-13.3,2.3-26.2,5.7-39.2,9.2
			c-1.2,0.4-2.5,0.7-3.7,1.1c-41.8,9.8-78.7,32.8-105.8,65.4c3.4-5.1,6.9-10.1,10.6-14.9c-13.7,13.3-24.8,28.5-30.3,47.2
			c1.8,0.9,3.5,1.9,5.3,2.8l0.2-0.2c0-0.7,0.2-1.2,0.2-1.9c1.8-7.8,8.7-15.4,13.5-21.8c10.6-14,23.2-26.2,37-37
			c28-21.5,62.2-36,97-41.3c0.2,0,0.2,0.2,0,0.2c-14.4,2.7-28.7,7.1-42.5,13.1c-3.2,1.4-6.2,2.7-9.4,4.3
			c-12.4,5.9-24.1,12.9-34.7,20.6c-13.5,9.6-26.1,20.7-36.9,33.3c-5.7,6.6-10.8,13.5-15.4,20.6c-2.1,3.2-7.3,9.6-3.5,13.3
			c1.4,1.4,3.4,1.6,5.1,2.7c3.4-8,9.6-15.6,14.5-22.5c19.1-26.1,44.8-47.9,73.9-61.9c3-1.4,6-2.8,9-4.1c32.3-13.5,67.9-17.4,103-7.6
			c0.2,0,0,0.2,0,0.2c-6.4-1.2-12.8-2-19.1-2.5h-0.2c-22.2-1.6-44.3,0.9-65.4,7.3c-1.6,0.5-3.4,1.1-5,1.6
			c-12.6,4.3-24.8,9.9-36.3,17c-16.7,10.3-31.7,23-44.7,37.8c-6.7,7.4-12.8,15.6-18.3,23.9c-2.3,3.5-6.9,8.9-8,13.1
			c-1.1,4.4,4.1,6.4,7.3,9.2c2-5,4.1-9.9,6.6-14.5C107,426.3,108.2,424.2,109.3,421.9z M165.3,371.4c-16.8,11-33.5,25.5-45.7,41.5
			c-0.7,0.9-1.4,2-2.1,3c-4.6,8.2-8.9,16.8-12.4,25.5c-0.7,2.5-1.1,4.8-1.4,7.3c0.4,3.5,2.3,6.6,5.3,9.6c0.5,0.5,1.1,0.9,1.6,1.4
			c3-5.5,2.5-11.7,3.7-18.3c2-9.8,5.3-18.8,10.8-27.1c11-16.3,26.1-29.4,40.4-42.7C165.8,371.6,165.5,371.2,165.3,371.4z
			 M363.3,438.7c0.2,0,0.5-0.2,0.7-0.2c0.9-0.2,1.6-0.2,2.5-0.4c1.8-0.2,3.5-0.4,5.1-0.2c0.9,0,1.1,1.2,0.2,1.4
			c-0.4,0.2-0.9,0.2-1.2,0.4c-1.1,1.4-2,1.2-2.3,3c0.4,1.1,0.7,2.1,1.1,3.2c0.2-0.4,0.4-0.5,0.7-0.9c1.6-1.8,2.7-2.1,3.5-4.4
			c0.5-1.4,0.7-2.1,0.4-3.2c0-0.2-0.2-0.4-0.2-0.5l0,0c-1.2-2.8-4.3-8.2-5.1-9.4l0,0c-2.3-3.9-5.7-7.3-8.3-10.8
			c-14,0.7-28.4,3.7-41.8,6.4c-18.1,3.5-36.3,8.9-51.9,18.8c-29.1,18.3-47.3,47.7-63.1,77.1c-0.2,0.2,0.2,0.4,0.4,0.2
			c17.5-29.3,39.5-58,70.7-73.6c19.9-13.6,42.5-22.9,67-26.1c0.2,0,0.2,0.2,0,0.2c-18.3,3-35.5,9.9-51.4,19.3c0.2,0,0.4-0.2,0.7-0.2
			c-2.1,1.2-4.3,2.5-6.2,3.7c-12.4,8-23.9,17.6-34,28c-0.2,0.2-0.4,0.4-0.5,0.5c10.1-7.6,21.6-15.2,34-21.8c-3.9,2.7-7.6,5.3-11.2,8
			c-28.7,22.2-55.5,56.4-62.4,92.9c3,1.4,6.2,2.7,8.9,4.4c-0.7-7.3,3.9-17,6.2-22.7c8.2-19.3,20.9-36.5,34.7-52.3
			c26.9-30.7,64.5-58.9,107.8-52.1c0.2,0,0.2,0,0.2,0.2c0.2,0.2,0,0.7-0.4,0.7c-2.8-0.2-5.7-0.4-8.5-0.2
			c-35.3,0.5-65.6,21.3-89.3,46.4c-12.6,13.3-24.3,27.8-33.5,43.6c-4.8,8.3-9.4,17.2-12.1,26.4c-1.6,5.5-3.7,12.1,3,14.7
			c2.8,1.2,6.2,1.6,9.4,2.1c0-0.2,0-0.5,0-0.7c1.2-16.3,8.3-32.4,16.3-46.6c8.2-14.7,18.1-28.7,29.6-40.9
			c20.4-21.5,47-37.1,76.6-39.2c0.4,0,0.5,0,0.9,0c0.7,0,1.4,0,2.1-0.2c0.7,0,1.4,0,2,0l0,0c1.2,0,2.5,0,3.7,0c0.4,0,0.4,0.4,0,0.5
			c-0.5,0-1.2,0-1.8,0.2c-0.5,0-1.1,0-1.6,0.2c-0.7,0-1.4,0.2-2.1,0.2s-1.2,0.2-1.8,0.2c-0.4,0-0.7,0-0.9,0.2
			c-32.8,4.6-61.7,24.5-82.4,50c-11.2,13.7-20.9,29.1-28,45.4c-3.5,8.2-6.4,16.8-7.8,25.7c-0.5,3-1.6,5.1,0.5,6.6
			c0.4,0.2,0.7,0.4,1.1,0.5c1.8,0.7,3.7,1.1,5.5,1.8c4.6,1.6,9.8,3.2,14-0.7c0.2-0.2,0.4-0.2,0.4-0.2c-0.5-0.4-1.1-0.7-1.6-1.1
			c-0.4-0.2-0.9-0.4-1.2-0.7c-0.2,0-0.2-0.2-0.4-0.2c-0.5-0.4-0.7-0.7-0.7-1.2c-0.2-0.2-0.2-0.4-0.4-0.5c-0.5-0.4-1.1-0.7-1.6-0.9
			c0.4-4.4,1.1-8.9,2.1-13.3c1.1-3.9,2.3-7.8,3.7-11.7c0.4-0.9,0.7-1.8,0.9-2.7c0.2-0.5,0.4-1.1,0.7-1.8l0,0
			c0.5-0.4,0.9-1.1,0.9-1.6c0.5-0.9,1.1-2,1.6-2.8h0.2c4.1-9.4,9-18.3,14.9-26.6c0-0.2,0.2-0.4,0.2-0.5c0.5-0.7,1.2-1.4,1.8-2.1
			c0.9-1.2,1.8-2.5,2.7-3.7c10.3-13.3,22.3-24.8,36-34.7c11-7.8,25-16.5,39-19.5C362.4,438.9,363,438.9,363.3,438.7z M366,539.8
			c1.2-10.1,3.2-20,5.8-30c2.1-8,4.1-15.8,5-23.6c0-0.5,0.2-0.9,0.2-1.4s0-1.1,0.2-1.8c0.2-1.6,0.2-3.2,0-4.8
			c-0.2-4.3-0.7-8.7-2-13.1c-1.1-3.7-2.5-7.4-4.1-10.8c0.2,1.2,0.2,2.3,0.4,3.5c0.2,4.1,0.2,8-0.4,12.1c0,0.2,0,0.4,0,0.7
			c0,0.7-0.2,1.4-0.4,2.1c0,0,0,0,0.2,0c0,0,0,0.2-0.2,0.2c-1.2,8.3-3.4,16.5-6,24.5c-1.8,5.1-3.5,10.3-5.3,15.4l0,0
			c-1.6,5.1-3.2,10.3-4.3,15.6c-1.8,8-3.5,16.7-3.5,25c0.2,3.5,0.7,7.1,1.8,10.5c2.3,6.7,7.3,12.1,12.1,17c0.7-0.2,1.4-0.4,2.1-0.7
			c1.2-0.7,1.8-1.2,1.8-1.8c0-0.5-0.4-1.2-0.9-2.3c0,0,0-0.2-0.2-0.2c-1.1-2.3-2-4.8-2.3-7.3c-0.7-4.1-0.9-8.2-0.7-12.2
			c-0.4-4.3-0.2-8.5,0.4-12.8C365.3,542.3,365.6,541,366,539.8z M139.3,187.2c2.1,0.2,4.3,0.2,6.4,0.4c0.7,0.5,1.4,0.7,2.5,0.9
			c7.3,0.4,14.5,1.4,21.8,2.5c25.9,1.8,51.4,8.2,75.7,17.2c4.8,1.8,9.6,3.7,14.4,5.9c1.4,0.5,2.8,1.1,4.3,1.8
			c0.5,0.4,1.1,0.7,1.8,1.1c25.5,11.5,49.8,26.6,71.4,44.5c-6.6-7.8-13.6-15.1-21.3-22c-13.7-12.6-28.9-22.9-44.3-33.1
			c-8.2-5.5-16.5-10.8-25-15.8c-8.7-5.1-17.9-9-27.1-13.3l0,0c19.1,5,37,15.8,53.7,26.2c16,10.1,31.7,20.4,45.7,33
			c13.8,12.4,26.6,26.6,37.2,42.2c6.6,6.6,12.8,13.3,18.6,20.4c2.5,3,5,6.2,7.1,9.4c-0.2-0.2-0.2-0.5-0.4-0.7
			c-6.7-13.8-14.7-26.8-23.8-39.2c-18.6-25.4-41.3-48.9-65.2-69.3c0,0,0-0.2,0,0c27.1,22,52.3,44.9,72.5,73.6
			c9.8,14,18.3,28.7,24.8,44.5c1.4,3.4,2.8,6.7,4.1,10.3c0.9,1.8,2,3.5,2.8,5.3c2.3,4.8,4.8,9.9,6.4,15.2c-0.4-8.3-3.9-17-6.4-24.1
			c-4.1-11.5-9-22.7-14.5-33.7c-11.2-22-24.5-43.1-40.4-61.9c-0.2-0.2,0-0.4,0.2-0.2c18.3,20.2,34.2,42.4,46.1,67
			c5.9,12.2,11,24.8,15.4,37.6c2.8,8.3,4.8,17.6,1.4,25.2c0,2.5-0.2,5-0.9,7.4c3.2-1.4,6.2-3.4,8-6c3.7-5.9,1.4-14.7,0.2-20.9
			c-2.3-12.6-6.6-24.8-11.9-36.5c-10.6-23.4-25.4-44.5-39.9-65.4c0-0.2,0.2-0.2,0.2-0.2c12.4,15.6,25,31.6,35.1,48.8
			c-8.2-23.2-20.2-45.7-32.8-65.2c-20-30.8-43.8-55.1-76.9-71.6c-0.4-0.2-0.5,0.2-0.2,0.4c30,20,51.6,44.7,69.8,75.5
			c-1.4-1.8-2.7-3.5-3.9-5.3c0-0.2-0.2-0.2-0.2-0.4c1.6,2.3,3,4.6,4.4,7.1c0.2,0.2-0.2,0.4-0.2,0.2c-12.9-15.4-24.3-31.4-39.7-44.7
			c-12.8-10.8-25-20.2-40.1-27.7c-12.2-6.2-24.8-11.7-37.6-16.5c-6.6-2.1-13.1-4.1-19.9-5.9c-3.5-1.2-7.3-2.5-10.8-3.7
			c-9.9-2.1-19.7-4.1-29.4-4.8c-6.7-0.5-15.8-0.9-20.7,4.4c-3.2,3.4-3.7,8-4.4,12.4c4.4-2.1,9.8-2.5,14.7-2.8
			c20.4-0.9,41,3.2,60.1,10.5c19.1,7.1,37.2,17.4,53.9,29.1c7.8,5.5,15.4,11.3,22.9,17.2c8,6.4,16.1,12.4,22.5,20.4
			c0,0.2,0,0.2-0.2,0.2c-6.2-7.1-14.2-12.4-21.8-17.9c-7.1-5-14.2-10.1-21.4-14.9c-14.9-9.6-30.1-18.8-46.4-26.1
			c-17.2-7.6-35.6-13.1-54.4-14.5c-8.9-0.7-20.4-1.8-28.5,2.1c-0.7,0.4-1.4,0.7-2,1.1c-1.1,0.7-2,1.4-2.7,2.1
			c-2.1,2.5-2.8,5.9-2.7,9.8c0.9-1.1,1.6-2.1,2.7-3.2c4.6-5.1,9.4-5.9,16-5.3c8.2,0.7,16.1,1.8,24.1,3.2c16.1,3,31.7,7.8,47,14.2
			c16.1,6.9,30.3,16.1,44.1,26.8c0.2,0.2,0,0.4-0.2,0.2c-24.1-16.5-52.5-28.5-80.8-35.3c-7.3-1.8-14.7-3-22.2-4.1
			c-7.3-0.9-18.4-3.9-24.3,1.9c-2.3,2.3-4.1,4.8-6.2,7.1c-0.5,0.5-1.1,1.1-1.6,1.6c-1.1,0.9-2.3,1.8-3.5,2.5c-1.4,0.7-3,1.2-4.4,1.9
			c1.4-0.4,2.7-0.7,3.9-0.9c19-4.4,38.6-3.2,56.4,5c0.2,0,0,0.2,0,0.2c-16.7-3.9-34.2-5-51.1-2c-5.3,1.1-10.8,2.3-16,4.3
			c-0.9,0.4-1.6,0.5-2.5,0.9c-1.8,0.7-3.5,1.4-5.3,2.3c-3.4,1.8-5.5,4.4-7.1,7.6C124,183.7,131.8,185.1,139.3,187.2z M167.3,133.3
			C167.1,133.3,167.1,133.3,167.3,133.3L167.3,133.3L167.3,133.3z M171.7,133.1c-0.4,0-0.5,0-0.9-0.2
			C171.2,133,171.5,133,171.7,133.1C171.7,133,171.7,133,171.7,133.1z M737.4,321.9c-1.8-3.4-4.4-6.6-7.4-9
			c-4.1-0.4-8.3-0.7-12.4-1.2c5.9,3.4,10.3,8.3,13.1,15.6c1.2,3.5,2.3,7.3,4.3,10.5c3,4.8,7.4,3.5,12.1,2.1c0.9-0.2,1.8-0.5,2.7-0.9
			C742,337.3,740.6,327.8,737.4,321.9z M747.8,305.6c-9.6-2.8-19.3-1.2-28.9-3.2c-3.7-0.7-6.9-3-10.3-4.6
			c-7.6,0.7-16.3,1.1-24.3-0.9c14.7,9.9,32.3,9.9,49.6,12.1c7.8,0.9,16.8,1.9,23.8,6.2c4.8,3,7.4,7.8,9.6,12.8
			c2.3-2.7,3-5.7,3.5-8.9C765.2,312.4,754.7,307.6,747.8,305.6z M629.8,234.9c-0.5-20-0.4-39.9,0.7-59.9c1.6-31,7.1-64.5,30.8-86
			c0.7-0.7,1.6-1.4,2.3-2c-0.4-0.2-0.5-0.4-0.9-0.5c-2.1-1.2-4.3-2.1-6.6-2.8c-7.6,4.6-11.5,14.9-15.2,22.7
			c-2.3,4.8-4.4,9.8-6.4,14.5c-0.2,0.9-0.4,1.8-0.7,2.5c-0.7,1.8-1.1,3.7-1.6,5.5c-1.2,3.2-2.7,6.2-3.9,9.4
			c-0.4,0.9-0.7,1.6-0.9,2.5c-4.8,15.8-8,32.3-9.4,48.7c-2.3,25.4,1.8,56.4-8.7,80.8c-0.4,0.9-0.7,1.8-1.2,2.7
			c-2,4.1-4.4,8-7.4,11.7l0,0c-1.2,2.3-2.8,4.4-5,6.4c2.7-0.7,5.1-1.6,7.3-3c4.1-2.5,6.6-6.7,8.7-11.2c0.5-1.2,1.1-2.5,1.6-3.7
			c0.4-0.9,0.7-1.8,1.1-2.5c5-12.4,8.2-25.7,9.2-39c0-0.2,0.2-0.2,0.2,0c0.2,15.1-2.1,29.8-7.6,43.6c-0.5,1.2-1.1,2.5-1.6,3.7
			c0,0.2-0.2,0.2-0.2,0.4c-0.2,0.4-0.4,0.9-0.5,1.2c0.4-0.4,0.7-0.5,1.1-0.9c1.1-1.1,2.1-2.1,3.2-3c3.4-3.7,5.8-7.8,7.6-12.4
			C629.2,255.1,630.1,245,629.8,234.9z M179,118.6c0.9,0,2,0.2,2.8,0.2c6.9-0.2,14,0.7,21.6,2c16.5,2.8,33.1,6.2,48.8,12.1
			c0.4,0.2,0.5-0.4,0.2-0.5c-20.4-10.1-58.3-27.5-85.4-20.7c-2.7,3.4-5.3,6.6-7.8,9.9C165.1,118.1,172.6,118.1,179,118.6z
			 M684.4,267.5c2-5.1,4.1-10.3,6.7-14.9c9.4-17.4,23-28.7,40.1-38.1c0.2-0.2,0-0.4-0.2-0.4c-17.5,4.4-32.1,17.7-42.9,31.7
			c-2.8,3.7-5.5,7.4-8,11.3c4.1-10.5,9.9-20,17.4-28.4c0.2-0.2,0-0.2-0.2-0.2c-13.1,12.8-22.5,27.8-27.7,44.9c-0.7,0-1.4,0-2.3-0.2
			c-7.3-0.7-10.6-4.8-16.8-7.4c-4.1-1.8-10.3-2.1-13.5-5.7c-2-2.1-2.8-5.3-3.4-8.7c-0.4,0.9-0.5,1.6-0.9,2.5
			c-1.8,9.6-6.2,17.7-13.1,23.8c3,2,6.4,3.7,9.8,5.3c9.2,4.4,19.9,9.6,30.1,10.1c2.1,0.2,3.9,0,5.8-0.4c-0.2-0.5-0.5-1.2-0.9-1.8
			l-0.2-0.2c0.2,0.2,0.5,0.2,0.7,0.4c0.2,0.2,0.4,0.4,0.5,0.5c0,0.4,0,0.7,0,1.1c1.2-0.2,2.3-0.5,3.4-1.1l0,0
			c1.2-13.1,8.7-27.1,15.4-37.9c7.4-11.9,17.2-22.3,28.7-30.3c0.2-0.2,0.4,0.2,0.2,0.4c-9.9,9.4-19,19.9-26.1,31.7
			c-3.5,6-6.7,12.4-9.2,19.1c-1.6,4.1-2.5,8.2-3.7,12.2c0-0.2,0.2-0.2,0.2-0.4c2.1-3.2,3.5-7.1,5.1-10.6
			C681.5,273,683,270.3,684.4,267.5z M637.2,268.6c-0.2-0.2-0.4-0.5-0.5-0.7c0.4,0.2,0.5,0.4,0.9,0.5
			C637.6,268.4,637.4,268.6,637.2,268.6z M642.7,270.2L642.7,270.2L642.7,270.2L642.7,270.2z M781.9,276.2c-0.2-0.9-0.5-1.8-0.7-2.8
			c-5-3-10.6-5-16-6.7c-12.2-4.3-22.9-2-35.5-1.6c-10.1,0.2-20-0.4-29.4,3.9c-2.1,1.1-4.1,2.1-6,3.4c1.2-1.2,2.3-2.5,3.5-3.5
			c-4.3,3-8.2,6.2-12.1,9.6c-1.4,1.8-3,3.5-4.4,5.3c-0.9,2.1-2,4.1-3.4,5.8c6.4-0.9,11.5-5.8,16.8-9.2c5.1-3.2,10.6-5.7,16.3-7.4
			c2.7-0.9,5.1-1.6,7.8-2.1c-0.5-0.4-1.1-0.5-1.8-0.7c2.7-0.4,5.1-0.5,8-0.5c7.3-1.1,14.7-1.1,22.2-0.2c6,0.7,11.9,2.1,17.5,4.3
			c5.7,2.1,10.6,5.8,16.1,8c0.9,0.4,1.2,0.7,1.4,0.9c0,0,0,0,0.2,0c0.2,0,0.2-0.4,0.4-1.4C783.1,279.9,782.2,277.4,781.9,276.2z
			 M539.9,196.6c-0.7-4.6-1.4-9-2.3-13.6c0.2,2.1,0.4,4.1,0.5,6.2c0,0.2-0.2,0.2-0.2,0c-0.5-5.1-1.4-10.3-2.3-15.2
			c-0.2-0.9-0.4-1.6-0.5-2.5v-0.2c-0.4-1.4-0.5-3-0.9-4.4l0,0c-3.4-17.2-8-34-12.8-50.9c-0.5-1.8-1.1-3.5-1.6-5.1
			c-1.8-6.4-3.7-12.6-5.5-18.8c-1.8-5.9-3.5-11.7-5.5-17.2c-2.1-5.5-4.4-11-7.1-16.1c0-0.5,0-0.9-0.2-1.4c-1.8-3.5-3.5-7.1-5.5-10.5
			c-3.4-5.7-6.7-13.8-11.9-18.3c-1.4-1.2-3-2.3-5-2.8c-1.1-0.5-2.3-0.7-3.5-0.9c-1.2-0.2-2.7-0.4-3.9-0.4c0.9,1.2,1.8,2.5,2.7,3.5
			c0.7,1.1,1.4,2,2.1,2.8l0,0c5,6.6,9.4,13.5,13.5,20.7c10.8,19,19,39.5,25.4,60.6c0.4,1.4,0.9,2.8,1.2,4.3
			c3,10.3,5.5,20.6,7.6,30.8c0.2,0.4-0.5,0.5-0.7,0.2c-9.8-26.4-17.2-53.5-29.3-78.9c-5.7-12.1-12.4-23.6-20.2-34.2
			c-0.2-0.4-0.4-0.5-0.5-0.9c-0.4-0.4-0.5-0.7-0.9-1.2c-2-2.5-3.9-5-5.9-7.4c-0.2-0.2-0.2-0.2-0.4-0.4c-0.4-0.4-0.7-0.9-1.1-1.2
			c-0.5-0.5-1.1-1.2-1.6-1.8c-0.4,0.4-0.5,0.7-0.9,1.2c-0.2-0.2-0.4-0.4-0.5-0.7c-0.7-0.9-1.6-1.6-2.5-2.1c-2.1,0-4.3,0.9-6.2,1.1
			c-0.5,0-1.1,0-1.8,0c-0.2,0.2-0.5,0.4-0.7,0.7c-0.4-0.4-0.7-0.5-1.1-0.7c-1.4,0-2.8-0.2-4.4-0.2c-0.5,0.2-1.1,0.5-1.6,0.9
			c0.5,0.2,1.1,0.5,1.4,0.7c7.8,4.6,13.8,11.7,19.5,18.8c6,7.4,11.5,15.4,16.7,23.6c11.3,18.1,20.4,37.6,26.6,58
			c6.4,14.9,11.9,30.1,16.1,45.7c1.6,5.9,3.2,11.9,4.4,17.9c0.2-10.8-0.7-21.4-3.2-31.9c0-0.2,0.4-0.4,0.4-0.2
			c1.2,4.4,2.5,8.9,3.4,13.3c2.3,11.5,3.2,23.2,2.8,35.1c1.2,6.6,2.1,13.1,2.8,19.7c0,0.4,0,0.7,0.2,1.2c0.9,8.3,1.6,16.8,2,25.2
			c0.5,13.3,0.4,26.9-4.4,39.5c-1.2,3-2.5,6-4.1,8.7c-0.5,1.1-1.2,2.1-1.9,3.2c-0.9,1.4-2,2.8-2.8,4.3c4.1,0,8-0.5,10.8-3.4
			c0.9-1.1,1.8-2.3,2.5-3.9c0.2-0.4,0.4-0.7,0.5-1.2c3.5-10.3,3.7-21.8,3.5-32.6C541,241.3,539.9,218.9,539.9,196.6z M525.2,294.4
			c8-14.5,9-31.9,8-48.9c-1.2,3.2-2.8,6.4-5.1,9.6c-1.6,2.3-2.8,4.8-4.1,7.3c-0.9,0.9-1.6,2-2.5,3c-3.9,4.8-6.9,10.3-10.5,15.4
			c-3.7,2.5-7.8,4.3-12.4,6.7c-5.1,2.8-8.9,6.6-13.3,10.3c-8,6.7-14.9,5.3-23.6,8.7c-5.1,2-9.6,5.7-14.5,8.2
			c-8.2,4.1-17,5.7-25.7,7.4c-1.8-0.5-3.5-1.1-5.1-1.8c-1.2-5.7-3-11.3-4.4-16.5c-4.1-14-9.6-27.5-15.6-40.6
			c-12.4-26.4-28-52.3-46.1-75.3c-0.2-0.2-0.4,0-0.4,0.2c15.4,25.2,30.7,49.6,41.8,77.1c4.3,10.5,7.6,21.1,10.6,31.9
			c2.3,4.6,4.4,9.2,6.4,14.2c5,12.8,10.1,28.2,9.2,42c-0.5,9.8-7.4,14-15.4,16.3c-0.7,1.4-1.4,2.8-2.3,4.3c9.6-1.1,19-6.2,27.3-10.8
			c11.7-6.4,23.8-10.1,36.3-14.4c14.4-5,25-14.2,36-24.3c5.5-5.1,11-10.5,16-16.1c0.9-1.1,1.8-2.1,2.7-3.2c1.4-1.8,2.7-3.5,3.9-5.5
			c0.4-0.4,0.5-0.9,0.7-1.2c-0.2-0.2-0.4-0.5-0.5-0.7c0.4,0,0.9-0.2,1.2-0.5C524.3,296,524.8,295.2,525.2,294.4z M427.3,547.6
			c-0.4-0.4-0.9-0.7-1.4-0.9c-1.6-0.7-3.5-1.4-4.8-2.1c-3.7-2.3-7.1-5.3-9.9-8.9c-8.3-10.3-12.6-24.8-20-36
			c-0.4-0.5-0.7-1.1-1.1-1.4c-2-2.7-4.1-5.1-6.4-7.3c0.2,0.5,0.4,1.1,0.5,1.8c2,5.5,2.8,11.2,3.4,17c0.2,0.4,0.4,0.7,0.4,1.1
			c3.5,8.3,7.1,16.8,11.3,25c4.8,9.6,11.5,18.6,21.1,23.2c1.2-0.9,2.5-1.8,3.5-2.8c2-1.8,5.7-4.4,4.3-7.4
			C428.2,548.5,427.9,547.9,427.3,547.6z M758.5,290.7c-7.3-5-13.8-4.1-22.2-3.5c-3.7-0.5-7.3-0.7-11-0.7
			c-7.1-1.1-13.8-3.4-21.3-4.1c-1.6-0.2-2.8-0.2-4.3,0c-3.4,1.8-6.6,3.5-9.9,5.5c-2.7,1.6-5.5,2.8-8.3,3.4c8.9,3,17.7,3.4,27.7,2.3
			c11.9-1.1,24.1-3,35.8-0.2c9.4,2.3,18.1,8,24.3,15.4c0.7,1.1,1.6,1.9,2.5,2.7c0.9,0.7,1.9,1.2,3.2,0.9c0.5-0.2,1.2-0.5,1.8-1.1
			l0,0C772.1,303.7,765.9,295.9,758.5,290.7z M701.6,289.7c0,0,0-0.2-0.2-0.2c0.4,0,0.5,0,0.9,0
			C702.1,289.5,701.9,289.7,701.6,289.7z M626.9,118.1c6.6-14.4,15.2-29.1,27.3-39.9c-0.4-1.4-1.1-2.7-2.3-3.7
			c-0.4-0.4-0.5-0.5-0.9-0.9c-11.2,12.9-20.2,26.8-24.3,44.3C626.8,118.2,626.9,118.2,626.9,118.1z M535.8,167.2
			c-0.2-0.7-0.4-1.4-0.5-2.3c0.2,1.4,0.4,2.8,0.5,4.1C536,168.4,536,167.7,535.8,167.2z M605.7,223.7c0-0.4,0.5-0.4,0.5,0
			c2.1,13.5,1.4,26.8-0.4,40.2c-0.4,2.1-0.5,4.3-0.9,6.4c0.2-0.5,0.4-0.9,0.5-1.4c0.2-0.4,0.4-0.7,0.4-1.2l0,0
			c3.2-9.6,4.8-19.5,5.5-29.8c-0.4-6.4-0.5-12.8-0.5-19.3c0-28.9,2.8-57.3,10.6-85.3c0,0,0-0.2-0.2,0c-9.4,23.8-15.1,48.9-17.2,74.5
			c-0.4,3.4-0.5,6.9-0.5,10.3c-0.7-14-0.5-28.2,1.1-42.2c0-0.4-0.5-0.4-0.5,0c-2.8,18.3-5.3,36.5-5.7,55c-0.2,8.2-1.2,20.4,0.4,30.8
			c-1.6,0.4-3.4,0.7-5.3,0.7c-8.9,0.5-15.1-1.9-23.6,0.9c-5.5,1.8-11.7,1.9-17.2-0.5c-0.5-10.5-1.9-21.1-2.8-31.2
			c-1.2-14.7-2.7-29.6-4.4-44.3c-3.5-28-10.1-55.8-20.4-82.1c0-0.2-0.4-0.2-0.4,0c8,29.4,13.8,58.7,15.6,89.2
			c0.2,4.1,0.4,8.3,0.5,12.4c-0.2-1.6-0.4-3.2-0.5-4.8c1.1,11.9,2.1,23.8,2.8,35.8c0.9,12.6,2,25.2,1.2,37.8
			c-0.4,6.2-0.5,14.7-3.2,21.5c5.5,0,11.2,0,16.7-0.4c6.7-0.5,14.4-0.9,21.3-2.5c2-0.5,3.7-1.1,5.5-1.8c1.4-0.5,2.8-1.2,4.1-1.9
			c11-6,12.1-19,14-30.1C605.3,248.4,607.3,236.1,605.7,223.7z M481.9,22c-0.2,0.2-0.4,0.4-0.5,0.7c0.5,0.2,0.9,0.4,1.4,0.7
			C482.6,22.9,482.3,22.3,481.9,22z M483.5,75.9c0.4,0.4,0.7,0.5,0.9,0.9c-1.1-1.8-2-3.5-3-5.3c-4.6-7.8-9.8-15.4-15.2-22.7
			c-5.7-7.4-11.7-15.8-19.7-21.1c-3.4-2.3-6.9-3.7-10.5-4.4c-0.5-0.2-1.2-0.2-1.8-0.4c-4.8-0.7-9.9-0.4-15.2,0.2c-0.2,0-0.4,0-0.5,0
			c9.4,3.7,18.4,8.3,26.9,14C460.8,47.5,473.2,61,483.5,75.9z M426.4,527.9c-2.1-1.2-4.3-2.7-6.2-4.3c-8.3-6.7-14.2-17.9-23.8-22.3
			c5.7,9,9.8,20,15.8,28.7c5.3,5.3,12.1,8.5,19.1,10.8c2.3-2.8,3.7-5.8,1.8-9C431.9,529.9,428.4,529,426.4,527.9z M727.8,235.6
			c-15.2,7.1-28.5,18.8-38.6,32.4c-1.2,2.1-2.5,4.3-3.5,6.6c21.3-26.6,53.5-46.1,88.3-39.2c-0.2-3-1.1-6.2-2.5-9
			C757.1,223,740.7,229.6,727.8,235.6z M725.9,247.1c-1.2,0.4-2.3,0.7-3.4,1.1c-2,0.9-3.7,2-5.5,3c-5.7,3.4-11,7.4-16,11.7
			c6-4.3,12.4-7.6,19.1-9.6c9.2-3,19.5-3.2,29.3-3.7c7.1-0.4,14.2-0.5,21.1,0c1.6,0.2,3,0.2,4.4,0.4c1.2,0.2,2.7,0.4,3.9,0.5
			c-0.7-2.3-1.6-5-2.8-7.3c-3.7-0.2-7.6,0.5-10.8,0.7C752.1,244.3,738.4,243.9,725.9,247.1z M394.4,559.5c-3.7-4.3-6-9.6-7.3-15.2
			c-1.2-4.8-1.8-9.8-2.1-14.7c-0.7-10.8,0-22-2.7-32.6c-0.5-2.3-1.2-4.4-2.1-6.6c-0.7,5.7-2.1,11.2-3.5,16.8
			c-2.7,16-4.6,32.3,1.9,47.5c2.1,4.8,6.7,12.8,12.4,18.4c3.7-0.5,7.3-1.6,10.6-3.2c0.9-0.5,1.8-1.1,2.7-1.6
			c-0.7-0.5-1.4-1.1-2.1-1.6C399.1,564.4,396.7,562.1,394.4,559.5z M374.7,430.2c5.7-10.8,6.9-23,9.9-34.9
			c1.4-5.9,3.5-11.3,6.4-16.7c0.4-0.7,0.7-1.4,1.2-2c0.7-1.1,1.4-2.1,2-3c0.7-1.1,1.4-2.1,2.1-3.2c0.7-1.1,1.2-2.1,1.8-3.2
			c0.5-1.1,0.9-2.1,1.2-3.2c0.4-1.1,0.7-2.1,0.7-3.4c0.2-0.5,0.2-1.1,0.2-1.6c0.2-4.3-0.7-8.7-2.1-13.1c-1.6-5-4.1-9.9-6.7-14.7l0,0
			c-1.1-1.9-2.1-3.7-3.4-5.5c-0.5,5.3-2.1,10.8-5.7,16.5c-2.8,4.6-6.6,8.3-9.9,12.2c-2.7,2.8-7.4,11.2-11,12.6
			c-7.6,2.8-14.9-12.4-19.7-17.4c-5.3-5.7-11.3-10.6-18.1-14.5c-9.4-7.1-20.2-12.9-31.6-17.4c6.4,2.7,12.6,5.7,18.4,9.4
			c16,10.1,29.6,23.8,39.4,39.9c5.3,8.7,9.2,17.9,12.6,27.3c0.2,0.4,0.2,0.5,0.4,0.9c3.5,9.8,7.1,19.7,9,29.8
			C373.3,426.7,374.1,428.5,374.7,430.2z M634.2,192.2c-0.4,10.5-0.5,20.9-0.4,31.6c0,3.9,0.2,7.6,0.4,11.5
			c3.9-19.9,5.1-40.2,8.2-60.3c0-0.2,0-0.4,0-0.5c0-0.4-0.2-0.7-0.2-1.1c0.5-2.3,1.1-4.4,1.6-6.7c2.8-14.7,6.9-29.1,12.1-43.1
			c2.3-6,4.8-14.5,9.2-20.6v-0.2c0.5-0.5,1.2-1.2,1.8-1.8c0.2-0.2,0.2-0.2,0.4-0.4c0.5-0.5,1.1-1.1,1.6-1.6c1.4-1.4,2.8-2.8,4.4-4.1
			c-2.3-2-4.6-3.5-7.3-4.6C636.9,115.2,635.4,156.5,634.2,192.2z M740,213.6c9.6-3.4,18.8-3.4,28.4-1.4c-0.5-2.7-1.1-5.3-1.8-8
			c-9.6,0.5-18.8,3.9-26.9,8.9C739.5,213.3,739.7,213.8,740,213.6z M366,295.2c-1.8-2.1-3.7-4.3-5.7-6.2c-2.7-2.8-5.1-5.5-8-8.2
			c-1.1-1.1-2.3-2.1-3.4-3.4c2.1,2.1,4.3,4.1,6.2,6.2C358.7,287.7,362.3,291.4,366,295.2z M83.8,388.8
			c10.8-13.6,24.8-25.5,37.6-34.9c2.1-1.6,4.1-3,6.2-4.4c14.5-12.8,30.7-23.6,47.9-31.6c0.2,0,0-0.4-0.2-0.2
			C138.9,334.7,106.1,356.8,83.8,388.8z M366.2,417.1c0-0.2-0.2-0.4-0.2-0.4h-0.2C366,416.9,366.2,416.9,366.2,417.1z M343.5,526.3
			c-0.2,0.2,0.2,0.4,0.4,0.2c8.3-14.7,15.6-30.1,20.4-46.4c1.1-3.9,2.3-8.3,3.2-13.1c0.5-5.3,0.4-10.8-0.4-16.1
			c-0.2-1.6-0.5-3.4-0.9-5.3c-0.7-1.2-1.4-2.3-2.3-3.5c-1.4,0.4-2.7,0.9-4.1,1.2c-0.2,4.1,0.4,8.2,0.4,12.6c0.2,8.3-0.5,16.7-2,25
			C355.4,496.5,349.7,511.4,343.5,526.3z M199.2,529c-2.1,3.5-3.9,7.4-4.4,11.5c-0.2,0.9-0.2,1.9-0.2,2.8c1.4,0.4,2.8,0.5,4.3,0.7
			c-1.8-4.8-0.5-9.9,0.5-15.1C199.5,528.8,199.4,528.8,199.2,529z M232.5,468.4C232.7,468.4,232.5,468.2,232.5,468.4
			c-12.8,12.9-23.9,28.2-33.7,43.4c-5.1,8-10.8,18.1-12.6,28c2.1,1.2,4.3,2.1,6.4,2.8c0.2-3.5,0.7-7.1,1.8-10.6
			c2.5-8.3,6.7-16,11.2-23.4C213.9,494.8,222.2,480.9,232.5,468.4z M350.7,572.4c-9-10.6-7.3-24.8-7.3-37.6c0-0.2-0.2-0.2-0.4,0
			c-3.9,12.4-6.2,26.2-0.5,38.5c1.2,2.7,3,5.7,5.1,8.3c4.3,0.2,8.5,0.4,12.9,0.2c-1.1-1.1-2-2-2.8-3
			C355.5,576.7,352.9,574.7,350.7,572.4z"/>
		<g>
			<path fill="#A0662C" d="M375.6,21.5c-16.7-2-31.7,1.9-48,6.2c-18.3,5-37,6.7-55.3,11.9c-19.9,5.7-39.4,13.8-55,26.9
				c-9,6.2-17.2,13.5-24.8,22.2c-2,2.3-0.2,5.9,3,5.1c21.8-5.3,42.4,6.4,61.2,15.8c16.7,8.2,33.5,16.1,49.8,25
				c14.5,7.8,28.7,17.4,39.4,30.1c9.4,11.3,13.1,19.1,28.5,21.3c5.8,0.9,10.5,1.2,15.6,4.3c3,1.8,5.5,4.1,8.9,5.5
				c4.3,1.8,8.5,2,12.9,0.5c4.8-1.6,8.3-5,12.2-8.2c4.6-3.7,7.6-6.6,14.2-7.1c4.4-0.4,8.5,1.2,12.9,0.7c6.7-0.7,9.8-4.3,17.4-0.5
				c2,1.1,2.8,3.5,5.1,4.4c2.7,1.1,5.1,0.7,7.3-1.1c3.4-2.8,3-7.4,2.7-11.3c-0.2-4.1-1.8-8.5-1.6-12.6c0.4-7.3,7.3-21.6,16.5-15.6
				c1.6,1.1,3.7-0.7,3.2-2.5C485.6,83.7,438.7,28.9,375.6,21.5z"/>
			<path fill="#A0662C" d="M606.2,62.4c-3.5-1.1-7.4-1.6-11-2.7c-6.4-1.9-10.5-6-15.1-10.3c-6-5.5-12.4-9.8-19.9-13.1
				c-14-6.4-30.7-10.1-46.4-12.9c-6.2-2.8-12.8-4.4-20-5.1c-1.6-0.2-3.4,1.6-3.2,3.2c0.7,5.8,3.7,7.1,8,10.5
				c9,7.3,13.8,18.1,18.6,28.4c5.5,11.3,10.6,22.7,14.7,34.6c2.3,6.7,3.9,13.8,7.4,19.9c8.3,14.4,19.9,11.7,33.9,9.2
				c8.7-1.4,16.1-0.5,23.6,3.9c1.6,0.9,4.3,4.1,6.4,4.3c5.1,0.5,5.3-1.6,7.6-6.4c4.1-8.2,6.6-17,10.3-25.4c2.1-4.6,4.8-9,7.4-13.5
				c1.4-2.3,5.1-6,5.3-9C634.6,67,613.5,64.3,606.2,62.4z"/>
			<path fill="#A0662C" d="M754.6,189.9c-1.1-9.9-8.5-19.7-14-27.1c-9.4-12.6-20.2-23.9-32.3-34c-5.1-4.3-14.5-14-22.9-17
				c-3.4-1.6-7.1-2.5-10.1-0.4c-2,1.2-3.2,3.4-3.9,5.8c-1.2,2.1-2.1,4.8-2.7,7.3c-4.1,7.6-6.6,16.7-8.9,24.5
				c-1.2,4.6-10.3,29.1-2.1,31.6c4.6,1.4,12.9-8.9,16.3-9c10.1-0.4,11.7,11.7,17.9,16.3c3.7,2.8,8.2,3.5,11.5,7.1
				c2.3,2.3,5,9,7.8,10.8c3.5,2.1,7.6,0.7,11.5-0.2c4.3-1.1,8.3-2.8,12.8-3.7c5.3-1.1,10.5,1.1,15.4,0c2.7-0.7,5-1.2,5.7-4.3
				C757.2,195,756.2,192.3,754.6,189.9z"/>
			<path fill="#A0662C" d="M150.3,312.7c10.5-4.3,18.3-11.7,29.6-13.7c6-1.1,10.1-2.1,13.8-6.9c1.4-1.8-0.5-3.7-2.3-3.9
				c-12.8-1.4,5.1-28.5,11.9-29.6c9.9-1.8,20.7-6.2,20.2-18.1c0-1.4-1.1-2.5-2.5-2.5c-5.7-0.5-11.3-1.1-17-1.8
				c-3-0.4-13.1-0.5-17.7-2.5c11-5,20.4-3.7,32.4-6c5-0.9,12.4-4.3,11.5-10.6c-0.9-6.2-9.8-7.8-14.4-9c-0.7-0.2-1.2-0.4-2-0.5
				c-15.1-5.5-30.7-8.7-46.6-10.5c-9.9-1.1-20-1.8-30.1-2.3c-9.8-0.5-20.2-1.8-29.3,2.5c-11.7,5.3-17.2,17.5-21.1,29.1
				c-6.9,20.9-13.5,42.7-17.9,64.2c-2.1,9.9-3.5,20-3.7,30.1c-0.2,9.2-0.5,23.6,3.4,32.1c5.8,12.4,23.2-7.8,28.7-12.1
				c8.7-6.6,17-13.8,26.9-18.6C132.5,318,141.7,316.3,150.3,312.7z"/>
			<path fill="#A0662C" d="M251.3,432.4c-8.9-2.3-16.1,0.4-24.6,3.4c-7.8,3-16.3,5.3-23.8-0.4c-1.6-1.1-4.6-4.4-5.8-5.8
				c-4.1-4.4-4.3-8.3-5.3-14.4c-1.1-6.4-4.1-14.4-3.7-20.7c0.7-10.3,10.1-14.9,10.5-24.6c0-1.8-1.8-3-3.4-2.7
				c-6,1.6-11,4.3-15.2,7.6c-22.2,13.7-39.7,34.2-49.8,58.1c-3.2,7.6-9,17.7-4.4,25.7c3.4,5.8,10.5,11.3,15.2,16.5
				c6.2,6.7,12.1,13.7,17.4,20.9c4.8,6.6,8,13.7,12.2,20.4c1.6,2.7,3.2,5.7,6.6,6.6c9.4,2.1,16.1-17,20-22.9
				c5.1-7.6,11.3-12.2,17-18.8c3.9-4.4,2.5-8,4.1-13.1c4.6-15.2,25.9-19.9,34.4-32.8C253.2,434.3,252.5,432.7,251.3,432.4z"/>
			<path fill="#A0662C" d="M329.5,534.8c0.2-1.4-1.6-2.5-2.8-2.1c-9.2,2.3-11.9,12.1-22.9,5c-1.6-1.1-2.5-2.3-3.9-3.2
				c-1.2-0.2-2.5-0.2-3.7,0c-7.8-1.8-12.1-5.8-12.6-12.2c-0.4-1.9-3-1.9-3.9-0.5c-0.9,1.4-1.8,2.8-2.7,4.1c0-0.2,0.2-0.4,0.2-0.7
				c0.2-0.4-0.5-0.7-0.7-0.4c-5.5,10.1-16.3,27.7-4.4,36.9c7.3,5.7,19.1,7.8,27.8,9.9c10.3,2.5,20.7,3.7,31.4,4.3c1.1,0,2.1-0.9,2-2
				c-0.5-5-3.4-8.2-4.8-13.1C326.5,552.6,328.8,543.3,329.5,534.8z"/>
		</g>
		<g>
			<path fill="#A0662C" d="M449.3,197.3c-2.1-1.4-5.3-1.6-7.4,0c-0.5,0.4-0.9,0.7-1.2,1.2c-1.1,0.2-2.1,0.7-3.2,1.4
				c-3.9,3-2,8.2,1.8,10.5c4.8,2.8,11.7,1.1,13.1-4.6C453.2,202.6,452.1,199.1,449.3,197.3z M442,203.2
				C442,203.5,442,203.3,442,203.2L442,203.2z"/>
			<path fill="#A0662C" d="M463.8,197.8c-2.1,0-4.3,1.9-4.1,4.1c0.2,2.3,1.8,4.1,4.1,4.1c2.1,0,4.3-1.9,4.1-4.1
				C467.9,199.6,466.1,197.8,463.8,197.8z"/>
			<path fill="#A0662C" d="M501.1,164c-6,1.4-9.4,6-9.4,12.2c0,2.3,2.8,4.3,5,2.8c1.6-1.1,7.6-3.5,8,0.4c0.2,3,4.8,3.9,5.5,0.7
				c0.9-3.7,0.2-9-2.5-12.4C506.7,165.2,504.4,163.3,501.1,164z"/>
			<path fill="#A0662C" d="M579.6,136.7c-4.1-1.1-11-1.6-13.3,2.5c-0.2,0.2-0.2,0.4-0.2,0.5c-2-0.4-3.7,0.2-5.3,1.8
				c-0.9,0.9-0.9,2.5,0,3.4c3.2,2.8,6.7,2.1,10.8,1.8c2.5-0.4,3.2,0.2,5.3,1.1c2.3,0.9,4.8,0.9,6.6-1.1
				C587.2,143.1,583.9,137.9,579.6,136.7z"/>
			<path fill="#A0662C" d="M601.4,126.9c-0.4-0.9-1.1-1.4-2-1.4c-0.4,0-0.7,0-0.9,0c-0.2,0-0.4,0-0.5,0.2c-0.4,0-0.5,0-0.9,0
				c-0.7,0.2-1.1,0.2-1.8,0.5c0,0,0,0-0.2,0c0,0,0,0-0.2,0c-2.1,0.5-3.5,2.8-2.8,5c0.7,2.3,2.8,3.2,5,2.8c2.3-0.4,4.8-2.3,4.8-4.8
				c0-0.4,0.2-0.5,0.2-0.9C601.9,128,601.6,127.5,601.4,126.9z"/>
			<path fill="#A0662C" d="M597.9,135.6c-1.4,0-2.7,1.8-1.8,3.2c1.1,1.6,2.5,1.6,3.5,0C600.5,137.4,599.3,135.6,597.9,135.6z"/>
			<path fill="#A0662C" d="M582.1,158.8c-2.8,0-2.8,4.4,0,4.4C584.9,163.1,584.9,158.8,582.1,158.8z"/>
			<path fill="#A0662C" d="M704.6,201.2c-4.1-5.9-7.8-13.5-13.3-17.9c-3.4-2.7-11.9-5.3-13.5,0.7c-0.4,1.2,0.5,2.3,1.6,2.8
				c0.2,0,0.4,0,0.4,0.2c0.4,0.9,0.9,1.6,1.8,2.1c2,1.2,3.4,0.5,5,3c0.7,1.1,0.9,2.5,1.4,3.7c2.7,5.3,7.3,8.9,12.6,11
				C703.3,207.8,706.4,203.9,704.6,201.2z"/>
			<path fill="#A0662C" d="M666.5,184.9c-0.7-0.5-1.8-0.9-2.5-1.4c0.4,0,0.7-0.4,0.9-0.9c0.9-2.5,2.8-4.6,3.9-7.1
				c1.1-2.3,2.7-4.6,2.3-7.1c-0.2-1.4-1.4-3-3.2-2.3c-3,1.1-4.4,3.9-5.5,6.7c-1.2,3.2-0.5,6.2-0.2,9.4v0.2c-0.2-0.2-0.4-0.4-0.5-0.5
				c-1.2-1.4-1.4-3.5-3-5c-1.8-1.6-5.1-0.5-5,2.1c0.2,3,2.7,4.8,5,6.2c2.1,1.4,4.3,2.8,6.9,2.5C667.2,187.7,667.9,185.8,666.5,184.9
				z"/>
			<path fill="#A0662C" d="M668.6,191.5c-3.9,0-3.9,5.9,0,5.9C672.3,197.5,672.3,191.5,668.6,191.5z"/>
			<path fill="#A0662C" d="M206.6,264.5c-0.2,0.7-0.4,1.4-0.5,2.3c-3.2,6.2-3.7,14.2,4.3,13.1c1.2-0.2,2.5-1.6,2.7-2.7
				c1.2-5.5,2-10.8,4.8-15.8c2.3-3.9,5-8.2,1.4-12.2c-5.1-6-10.8,0-11.3,6.2c-1.2-0.9-2.7-1.4-4.4-1.4c-3.2,0.2-6.4,1.2-7.3,4.8
				c-0.4,1.6,2,2.8,2.7,1.2c2.3-4.8,6.6,1.9,8,4.3C206.8,264.1,206.6,264.3,206.6,264.5z"/>
			<path fill="#A0662C" d="M239.6,251.5c2-2.1,3.7-4.3,5.7-6.4c1.8-2.1,4.1-4.8,2.3-7.6c-1.6-2.7-4.6-3-7.3-2
				c-2.7,1.2-5.7,2.7-8,4.6c-1.4,1.2-1.6,3-0.9,4.4c-0.2,0.2-0.4,0.5-0.5,0.7c-1.2,1.8-2.7,3.5-2.5,5.9c0.2,2.3,2.1,3.7,4.3,4.1
				C235.7,255.4,237.8,253.7,239.6,251.5z"/>
			<path fill="#A0662C" d="M244.6,228.9c1.1,0.5,2.3,0.2,3.2-0.5c0.7-0.7,1.1-1.4,1.4-2.5c0.5-1.4-0.5-3-1.8-3.5
				c-1.4-0.5-3,0-3.7,1.2c-0.5,0.9-0.7,1.6-0.9,2.7C242.6,227.3,243.5,228.5,244.6,228.9z"/>
			<path fill="#A0662C" d="M249.2,261.5c-3.5,0-3.5,5.5,0,5.5C252.7,267,252.7,261.5,249.2,261.5z"/>
			<path fill="#A0662C" d="M219.9,394.3c-4.3,2.1-8,5.7-11.5,8.9c-3,2.8-5.7,6.9-4.8,11.3c0.2,0.9,0.5,1.8,1.1,2.7
				c-0.4,2.5-0.2,4.8,1.1,6.4c2.3,2.8,6.6,2.1,8.7-0.7c1.8-2.3,1.2-5.3,3-7.6c1.6-2.1,3.7-3.2,4.8-5.8l0,0c0.2,0,0.2,0,0.4-0.2
				c3.9-2.5,3.9-6.9,3.2-11.2C225.4,394.6,222.8,392.7,219.9,394.3z"/>
			<path fill="#A0662C" d="M245.3,399.9c-2.5,0.4-5.3,3-6.7,5.1c-0.9,1.4-1.1,3.9,0,5.3c0.2,0.4,0.5,0.7,0.9,1.1
				c1.2,1.4,3.5,2,5.1,1.4c3.4-1.1,6.7-4.6,6.7-8.3C251.1,401.2,248.3,399.4,245.3,399.9z"/>
			<path fill="#A0662C" d="M227.5,381.3c0,0.4,0,0.5,0,0.9c0,0.9,0.7,1.8,1.6,2c0.4,0,0.7,0,1.1,0c0.9-0.2,1.6-1.2,1.6-2
				c0-0.4,0-0.7,0-0.9C231.4,378.8,227.7,378.8,227.5,381.3z"/>
			<path fill="#A0662C" d="M306.8,512.1c-0.7-0.2-1.2-0.2-2-0.4c-0.4,0-0.5-0.2-0.9-0.4c-0.4,0-0.7,0-1.1,0
				c-0.4-0.4-0.7-0.7-0.9-1.4c-0.5-2.5-4.4-2-4.4,0.5c0,1.9,1.1,3.7,1.8,5c0.5,1.1,0.7,1.8,1.8,2.5c0.5,0.4,0.9,0.5,1.4,0.7
				c1.4,0.5,2.7,0.5,4.3,0.4C310.3,518.7,310.1,512.8,306.8,512.1z"/>
			<path fill="#A0662C" d="M318.8,506.3c-0.9-1.4-2.7-1.4-3.5,0c0,0.2-0.2,0.2-0.2,0.4c-1.1,1.4,0.4,3.5,2.1,3.5
				c1.6,0,3.2-2.1,2.1-3.5C319,506.5,318.8,506.5,318.8,506.3z"/>
			<path fill="#A0662C" d="M320.8,487.1c-2.8,0-2.8,4.4,0,4.4C323.4,491.4,323.4,487.1,320.8,487.1z"/>
			<path fill="#A0662C" d="M492.4,195.7c-0.7-2.1-3.7-2.1-4.4,0c0,0.2,0,0.2-0.2,0.4c-0.5,1.4,0.9,3,2.3,3c1.4,0,2.8-1.6,2.3-3
				C492.4,195.9,492.4,195.7,492.4,195.7z"/>
			<path fill="#A0662C" d="M501.8,189.3c-2.3,0-2.3,3.5,0,3.5S504.1,189.3,501.8,189.3z"/>
			<path fill="#A0662C" d="M506.4,200.8c-1.6-0.5-3,0-4.3,1.1c0,0-0.2,0-0.2,0.2c-2,1.6-1.6,4.8,0,6.4c0.2,0.2,0.2,0.2,0.4,0.4
				c1.2,1.6,4.6,1.6,5.8,0c0.4-0.4,0.7-0.9,1.1-1.2C510.8,204.9,509.2,201.6,506.4,200.8z"/>
			<path fill="#A0662C" d="M505.1,225c-2.5,0-2.5,3.7,0,3.7C507.6,228.7,507.6,225,505.1,225z"/>
			<path fill="#A0662C" d="M485.3,223.5c-2.5,0-2.5,3.9,0,3.9C487.8,227.3,487.8,223.5,485.3,223.5z"/>
		</g>
		<g>
			<path fill="#C08A32" d="M608.1,75.7c-22.2-3.5-44-10.3-65.2-17.2c-3.9-1.2-5.5,5.3-1.6,6c8.2,1.2,16.5,1.1,24.6,2.5
				c8.2,1.4,15.4,5,23,8.2c1.4,0.5,2.7,1.1,4.1,1.8c0,0.2,0.2,0.2,0.4,0.4c7.1,4.4,11.9,6.4,14.4,15.6c0.5,2-0.2,3.9,0.5,6.2
				c0.5,1.6,2.8,2,3.7,0.5c2.5-4.1,10.6-13.3,9.8-18.3C620.7,76,612,76.4,608.1,75.7z M611.2,93.1L611.2,93.1
				C611.2,93.1,611.2,93.2,611.2,93.1L611.2,93.1z"/>
			<path fill="#C08A32" d="M746.9,188.8c-4.3-6-8.9-11.5-14-16.7c-1.2-1.9-2.8-3.9-4.6-5.7c-11.3-11.7-22.7-27.3-37.2-35.1
				c-2.3-1.2-5.1,1.9-3,3.9c6,5.7,30.5,21.1,39.9,35.5c-0.2,0.5-0.2,1.1,0.4,1.6c0.5,0.5,1.1,1.2,1.6,2c2.7,5.5,2.7,10.6-1.8,14.9
				c-0.9,0.9-0.5,2.8,0.9,3c2.1,0.4,4.4,0,6.7-0.4c0.5,0,0.9,0,1.6-0.2c2.5-0.4,5-0.7,7.3,0C746.2,192.3,747.8,190.2,746.9,188.8z
				 M740.2,187.6c0-0.2-0.2-0.2-0.2-0.4c0-0.5,0-0.9-0.2-1.4c0.4,0.5,0.7,1.1,1.1,1.6C740.7,187.6,740.4,187.6,740.2,187.6z"/>
			<path fill="#C08A32" d="M445.9,68.1c-0.7-0.7-1.6-1.6-2.3-2.3c-0.7-0.7-1.4-0.9-2.1-0.9c-22-15.1-45-28.4-72.7-29.6
				c-1.9,0-3.4,2.3-2.3,4.1c2.3,3.4,4.6,5,8.2,6.7c1.8,0.9,5,1.4,7.4,2.7l0,0c1.1,1.1,2.1,2.1,3.4,3c0.4,1.1,0.4,2.3-0.5,3.9
				c-0.9,1.9-9.2,3.9-11.2,4.6c-13.6,4.4-28,5.9-42,8.9c-6.6,1.4-13.1,3.2-19.5,5.9c-5.5,2.3-10.1,6.4-15.4,8.3
				c-9.8,3.7-22.5-0.9-32.4-2.3c-8.9-1.2-17.7-1.6-26.8-1.4c-2.5,0-3.4,4.3-0.7,4.6c21.3,3.5,42.2,20.6,61.3,30.3
				c0.5,0.2,0.9,0.4,1.2,0.4c1.2,0.9,2.7,1.8,3.9,2.7c0.7,0.5,1.8,0.4,2.3-0.4c2-1.9,2.1-2.5,2.5-5.1c0.2-2-1.2-4.1-1.2-5.9
				c0-8.5,5.1-10.3,12.1-14c4.6-2.5,8.2-4.6,12.2-8c8.5-6.7,16.7-9.9,26.9-12.2c33.9-7.6,65.4-2.5,98,7.8c2.1,0.7,3-2.3,1.4-3.4
				C453.9,73.6,449.8,70.9,445.9,68.1z M383.2,43.8c-1.1-0.5-2-1.1-3-1.4c1.4,0.4,3,0.7,4.4,1.1C384.1,43.4,383.5,43.6,383.2,43.8z"
				/>
			<path fill="#C08A32" d="M141.9,294.3c-1.2,0-2.5,0-3.5,0.2c-0.4-0.2-0.7-0.2-1.1-0.2c-1.9,0.2-3.9,0.2-5.8,0.4
				c-4.4,0-8.7-0.2-12.8-1.6c-2.3-0.7-3.5-1.6-4.8-2.7c0.4-4.3,1.8-9.2,1.6-12.1c-0.5-7.3-0.9-10.1,2.7-16.1c2-3.4,4.3-6,5.9-9.9
				c3.2-7.8,5.3-17,7.1-25.2c0.4-1.6-1.6-2.5-2.7-1.1c-5.5,7.4-7.8,15.6-11,23.9c-3.7,9.9-11.3,17-12.8,27.7
				c-0.7,5.3-1.4,9.9-2.5,14.2c-4.4,7.1-9.9,13.5-15.1,20.2c-4.8,6.4-8,12.8-7.1,20.9c0.2,1.8,1.8,3.4,3.7,2.8
				c1.6-0.5,2.8-1.2,4.1-1.9c0.2-0.2,0.4-0.2,0.5-0.4c14.7-12.6,31.6-22.5,49.1-30.7c0.4-0.2,0.5-0.4,0.9-0.5c2.5-0.9,4.1-2,5.7-4.8
				C144.8,296.2,143.7,294.3,141.9,294.3z M100.4,313.4L100.4,313.4c0,0.2-0.2,0.2-0.2,0.2S100.3,313.6,100.4,313.4z M107.3,307.6
				c0.4,0.2,0.7,0.2,0.9,0.4c-0.4,0.2-0.9,0.5-1.2,0.9C107.2,308.3,107.3,307.9,107.3,307.6z"/>
			<path fill="#C08A32" d="M192.1,487.9c-12.1,2.8-21.1-7.8-28.5-16c-0.4-0.5-0.7-1.1-1.1-1.6c-0.2-0.2-0.4-0.2-0.5-0.2
				c-5.5-5.8-11.7-11.5-16-18.3c-0.4-0.5-1.1,0-0.9,0.5c5.5,11.7,13.5,19.5,21.4,29.1c3.7,8.5,7.6,16.8,12.4,24.8
				c0.9,1.6,3.9,1.9,4.6,0c2.8-6.6,10.6-8.7,11.3-16C195.5,488.6,193.5,487.5,192.1,487.9z M188.2,493.5h0.2
				C188.4,493.5,188.4,493.7,188.2,493.5C188.2,493.7,188.2,493.7,188.2,493.5z"/>
		</g>
		<g>
			<path fill="#EDC475" d="M136.4,202.6c2.3-2.5,15.2,0.2,18.4,0c8.5-0.4,16.5-1.1,25,0.5c12.8,2.1,24.5,7.3,37.6,6.7
				c0.4,0,0.5-0.7,0.2-0.7c-17.9-3.4-34-9.8-52.3-10.8c-6.2-0.4-28.2-5.7-30.3,3.5C134.8,202.6,135.9,203.3,136.4,202.6z"/>
			<path fill="#EDC475" d="M341.7,278.7c-4.4-4.1-9.6-7.1-14.4-10.5c-5.5-3.9-9.8-8.7-14.9-12.8c-11-8.9-20.7-16-34.2-21.3
				c-15.2-5.9-30.7-11.5-45.9-17.5c-0.2,0-0.2,0.2-0.2,0.2c11.9,6.2,23.9,12.6,35.5,19.5c11.5,7.1,22.5,15.4,35.3,20.4
				c12.9,5.1,22.7,13.1,31.7,23.4c9,10.1,19.5,18.4,27.1,29.6c0.4,0.7,1.4,0,1.1-0.5C356.6,298.3,351.1,287.2,341.7,278.7z"/>
			<path fill="#EDC475" d="M510.5,147.3c-6.4-24.8-25.7-47.3-40.8-67.4h-0.2c15.2,21.3,22.3,45,33.9,68.1
				c6,12.1,12.2,24.1,14.9,37.6c2.3,11.7-0.5,24.3,4.8,35.3c0.7,1.4,3.2,1.1,3.4-0.5c2.5-11.7-3.7-22.2-6.7-33
				C516,174.1,513.8,160.4,510.5,147.3z"/>
			<path fill="#EDC475" d="M248.3,52.6c12.6-6.9,25.5-13.3,39-18.4c0.5-0.2,0.4-0.9-0.2-0.7c-25.9,4.1-56.4,15.8-73.9,36.2
				c0,0,0,0.2,0.2,0.2C226.3,66.8,236.8,59,248.3,52.6z"/>
			<path fill="#EDC475" d="M380.3,18.3c-29.8-4.4-58.9,7.3-87.2,14.4c-0.2,0-0.2,0.4,0,0.4c27.8-6.2,57.6-15.4,86.2-9.6
				c25.4,5.3,48.8,19,69.3,34.4c0.4,0.4,0.7-0.4,0.5-0.5C430.7,37.4,407.5,22.3,380.3,18.3z"/>
			<path fill="#EDC475" d="M595.9,60.1c-0.4,0-0.4,0.5,0,0.5c8.2,1.8,21.5,3.7,27.7,9.4c8,7.4,6.9,13.1,0.9,21.8
				c-1.4,2.1-3.2,3.7-4.4,6c-7.3,12.8-8.7,29.2-12.2,43.3c-0.2,0.4,0.5,0.5,0.5,0.2c3.7-12.9,6.7-28.5,13.1-40.6
				c3.7-7.1,12.1-12.1,13.5-20.4C638.5,61.7,607.8,60.6,595.9,60.1z"/>
			<path fill="#EDC475" d="M755.6,191.3c-2.1-8.9-7.6-19-12.8-26.6c-11-16.1-26.2-28.5-42.5-39l0,0c12.4,8.9,23,19.7,31.9,31.9
				c7.3,10.1,24.5,29.6,17.2,42.2c-0.7,1.2,0.7,2.1,1.8,1.8C756.2,199.6,756.9,196.1,755.6,191.3z"/>
			<path fill="#EDC475" d="M185.2,518.2c-13.1-2.3-23.6-22.3-31.4-32.6c-9.2-12.4-31.7-31.2-27.5-47.7c0-0.2-0.2-0.2-0.2,0
				c-9.8,18.3,13.3,38.5,23.9,50.7c4.6,5.3,9.4,10.8,12.9,17c2,3.5,3.5,7.4,6,10.6c4.3,5.7,10.5,9.4,16.7,4.8
				C186.6,520.1,186.6,518.3,185.2,518.2z"/>
			<path fill="#EDC475" d="M333.7,570.6c-11-3-22.5-3.4-33.7-5c-7.6-1.2-30.3-4.3-33.5-12.9c0-0.2-0.5-0.2-0.4,0
				c0.4,8.7,12.6,12.9,19.7,15.4c14.2,4.8,32.8,6.2,47.7,5.5C335,573.7,335.5,571.2,333.7,570.6z"/>
			<path fill="#EDC475" d="M285.9,357c10.5,4.4,18.4,12.9,28.9,17.9c0.5,0.4,1.4-0.4,0.9-0.9c-14-24.1-37.8-23-62.8-23.9
				c-7.1-0.4-14.4-0.2-21.5,1.1c-5.5-0.2-10.6,1.1-16.5,3c-3.5,1.2-9.9,2.7-10.6,6.7c-0.4,0-0.7-0.2-1.4,0c-0.4,0.2-0.4,0.7,0.2,0.7
				c0.4,0,0.9,0.2,1.2,0.5c0,0.2,0,0.4,0,0.4c0.2,0.9,0.9,1.2,1.8,1.2c1.1,1.2,2.3,2.5,3.9,2.3c4.3-0.4,8.9-5.7,13.3-6.9
				c6.6-1.8,13.5-2,20.2-2.8C257.3,354.5,272.4,351.4,285.9,357z M211.1,360.6c0.2-0.2,0.5-0.2,0.7-0.4c-0.5,0.4-1.2,0.7-1.8,1.1
				C207.5,360.9,207.9,360.6,211.1,360.6z"/>
		</g>
		<g>
			<path fill="#A0662C" d="M455.7,242.5c-0.2-0.2-0.5,0-0.5,0.4c1.1,2.5,2.5,5.5,2.5,8.3c0,3.5-2.1,3.7-4.3,5.3
				c-3.2,2.5-5.1,6.4-6.7,9.9c-0.2,0.5,0.4,1.1,0.7,0.5c2.7-3,5-5.7,8.9-6.7c2.3-0.5,4.6-0.9,5.7-3.2
				C464,252.4,458.9,245.2,455.7,242.5z"/>
			<path fill="#A0662C" d="M436.7,235.9c-0.2,2.1-1.1,3.5-3,4.6c-0.7,0.4-1.6,0.7-2.5,0.9c-0.9,0.4-1.2,0.4-2.1,0.5
				c-0.5,0.2-0.9,0.9-0.5,1.4c2,2.8,6.2,2.5,8.3,0.2c2-2.1,2.1-5.7,0.4-7.8C437.1,235.4,436.7,235.8,436.7,235.9z"/>
			<path fill="#A0662C" d="M419.3,228.5c-2.1-0.7-4.1-0.2-5.5,1.6c-0.4,0.5,0,1.2,0.7,0.9c1.1-0.5,3-0.9,4.3-0.7
				C419.9,230.5,420.4,228.9,419.3,228.5z"/>
			<path fill="#A0662C" d="M311.2,283.8c-0.2-0.2-0.4,0-0.4,0.2c-0.2,1.8,0.7,3.5,0.7,5.3c-0.2,2.1-1.2,3-2.5,4.4
				c-0.4,0.4-0.5,0.7-0.7,1.2c-0.2,0-0.2,0.2-0.4,0.2c-0.4,0.2-0.4,0.7-0.2,1.1c0.2,0.2,1.2,1.6,0.7,0.5c0.5,0.9,1.8,1.4,2.8,1.1
				C317.9,296.2,316,286.5,311.2,283.8z"/>
			<path fill="#A0662C" d="M302.3,299.8c-0.2,0-0.2,0.4,0,0.4C302.5,300.1,302.5,299.8,302.3,299.8z"/>
			<path fill="#A0662C" d="M291.2,287c0-0.5-0.5-0.7-0.9-0.7c-1.6,0.4-2.8,1.9-3.9,3.2c-0.4,0.4,0,0.9,0.4,0.7
				C288.7,289.8,290.8,289,291.2,287z"/>
			<path fill="#A0662C" d="M278.9,276.5c-0.9,0.9-1.8,1.8-2.7,2.7c-0.4,0.4,0.2,1.2,0.7,0.9c1.1-0.7,2.1-1.4,3.2-2.1
				S279.8,275.7,278.9,276.5z"/>
			<path fill="#A0662C" d="M342.6,304.9c-0.5-0.4-1.2,0.4-0.9,0.9c2.1,4.4-0.5,8.9-4.1,11.7c-0.9,0.7-0.5,1.9,0.5,2.1
				c3.7,0.4,7.1-2.3,8-5.9C347.2,310.4,345.2,306.9,342.6,304.9z"/>
			<path fill="#A0662C" d="M407.1,201.9c-3.2-1.6-5-1.2-8,0.7c-2.5,1.6-5.8,4.8-8.9,2.3c-0.4-0.2-0.7,0-0.7,0.4
				c0.7,3,3.7,3.7,6.6,3.7c2.1,0,3.4-0.7,5.1-1.6c0.9-0.5,2-1.1,2.8-1.6c1.1-0.7,2-1.8,3-2.5C407.6,203.2,407.6,202.3,407.1,201.9z"
				/>
			<path fill="#A0662C" d="M415.4,205.8c0.9,0,1.6,0,2.5-0.2c0.4,0,0.4-0.7,0-0.7c-0.9-0.2-1.6-0.2-2.5-0.2
				C414.9,204.9,414.9,205.8,415.4,205.8z"/>
			<path fill="#A0662C" d="M590.2,170.4c-1.1,2.3-1.4,5-2.8,7.1c-2.5,3.9-4.6,1.2-8,0.9c-3.4-0.5-7.8,2.1-9.4,5
				c-0.4,0.5,0.4,1.1,0.9,0.7c1.2-1.4,3-2,5-1.6c0.4,0.5,0.7,0.9,1.2,1.2c1.1,0.7,2.7,1.2,3.7,1.6c2.1,0.5,4.4,0.5,6.2-0.9
				c4.1-3,3.5-9.4,3.7-13.8C590.9,170.2,590.4,170,590.2,170.4z"/>
			<path fill="#A0662C" d="M573.4,187.2c-2,0.5-4.1,1.4-6,1.1c-0.4,0-0.5,0.4-0.2,0.5c1.4,0.9,2.8,2,4.6,2c1.4,0,3.9-0.4,4.1-2.1
				C575.9,187.2,574.3,186.8,573.4,187.2z"/>
			<path fill="#A0662C" d="M577.7,205.3c-0.9-0.4-1.4,1.1-0.5,1.2c0.5,0.2,1.2,0.2,1.8,0.4c0.5,0.2,0.9-0.5,0.4-0.9
				C578.7,205.8,578.2,205.6,577.7,205.3z"/>
			<path fill="#A0662C" d="M665.2,225.1c0.7-0.2,1.4-0.4,2-1.1c0,0,0.4-0.5,0.4-0.7l0.4-0.5c0.2-0.4,0.2-1.1-0.4-1.2
				c-0.2-0.2-0.4-0.2-0.7-0.2c-1.1-0.9-2.3-0.9-3.7-1.2c-1.8-0.4-2.8-1.2-3.9-2.7c-0.4-0.7-1.4-0.4-1.4,0.4c-0.2,2.5,1.6,5,3.5,6.2
				C662.4,225,663.8,225.5,665.2,225.1z"/>
			<path fill="#A0662C" d="M675.5,215.6c-1.6,0-1.6,2.3,0,2.3C676.9,217.9,676.9,215.6,675.5,215.6z"/>
			<path fill="#A0662C" d="M660.3,175.1c-0.4,0.2-0.5,0.5-0.5,1.1c-0.2,1.8-0.9,3.9,0.4,5.3c0,0.4,0,0.5,0,0.9
				c0.2,1.2,1.8,2.3,2.7,1.1c0.7-1.1,1.4-1.9,1.6-3.2c0-0.5,0.2-1.1,0.2-1.8c0-0.5-0.4-1.2-0.4-1.8c0.2-1.4-1.2-2.1-2.5-2.1
				C661.1,174.4,660.4,174.4,660.3,175.1z"/>
			<path fill="#A0662C" d="M659.9,164.7c-3.4,3.5-5.5,8.5-5.7,13.5c-0.2,1.4,2.1,2.1,2.8,0.7c2-4.1,3.5-8.9,4.4-13.3
				C661.5,164.7,660.4,164,659.9,164.7z"/>
			<path fill="#A0662C" d="M665.2,239c-0.5-2.1-3.7-1.2-3.2,0.9c0.4,1.4,1.4,2.7,2.8,3c1.2,0.4,3,0,3.4-1.4c0.2-0.4,0-0.9-0.4-1.1
				C666.8,240,665.4,240,665.2,239z"/>
			<path fill="#A0662C" d="M286.7,390.2c-0.9,0-0.9,1.1-0.2,1.4c2.1,0.9,3.5,2.1,3.5,4.8c0,2.1-1.1,3-2.5,4.4
				c-2.1,2.1-2.7,5.8-5.7,6.7c-0.5,0.2-0.9,0.7-0.5,1.2c1.4,1.9,3.7,1.2,5.1-0.5c0.5-0.5,0.7-1.4,1.2-1.9c0.7-0.9,1.4-0.9,2.3-1.4
				c1.4-0.7,2.5-1.6,3.4-2.8C296.7,396.9,293.1,389.6,286.7,390.2z"/>
			<path fill="#A0662C" d="M302.9,383.6c-0.2,0-0.4,0.4-0.2,0.5c1.1,0.9,0.9,2.7,0.4,3.9c-0.9,1.6-2.8,2.3-4.4,3
				c-0.5,0.2-0.4,1.1,0.2,0.9c2.5-0.4,5.9-0.9,6.6-3.9C306.1,386.1,305.2,383.8,302.9,383.6z"/>
			<path fill="#A0662C" d="M273.3,364.3c-0.9,0.2-0.9,1.6,0,1.8c1.4,0.2,2.3,1.2,2.7,2.7c0.2,1.2-0.7,2.3-0.5,3.5
				c0,0.5,0.4,0.9,1.1,1.1c2.8,0.4,3.5-3.9,2.8-5.8C278.4,365,275.8,363.9,273.3,364.3z"/>
			<path fill="#A0662C" d="M321.5,391.9c0.2,0.5,0.4,1.2,0.7,1.8c0.2,0.4,0.9,0.4,1.2,0c0.4-0.5,0.5-1.2,0.7-1.8
				C324.7,389.8,320.8,389.8,321.5,391.9z"/>
			<path fill="#A0662C" d="M321.5,312.9c-2,0-3.9,1.8-3.7,3.7c0.2,2.1,1.6,3.7,3.7,3.7c2,0,3.9-1.8,3.7-3.7
				C325.2,314.7,323.6,312.9,321.5,312.9z"/>
			<path fill="#A0662C" d="M416.7,261.3c-2.1,0-2.1,3.2,0,3.2C418.8,264.5,418.8,261.3,416.7,261.3z"/>
		</g>
		<g>
			<path fill="#EDC475" d="M320.4,44c-6.2,0-6.2,9.6,0,9.6C326.5,53.5,326.6,44,320.4,44z"/>
			<path fill="#EDC475" d="M300.2,54.4C300.2,54.2,300.2,54.2,300.2,54.4c0.4-0.5,0.4-1.1,0.2-1.4c0,0,0-0.2-0.2-0.2
				c-0.9-1.4-3-0.9-3,0.9C297,55.1,299.3,55.8,300.2,54.4z"/>
			<path fill="#EDC475" d="M339.6,44.8c-1.1,0.2-1.9,0.2-2.8,0.9c-0.5,0.4-0.5,1.1,0,1.4c0.9,0.7,1.8,0.7,2.8,0.9
				C341.5,48,341.5,44.7,339.6,44.8z"/>
			<path fill="#EDC475" d="M363.7,46.4c-2,0-2,3,0,3C365.5,49.5,365.5,46.4,363.7,46.4z"/>
			<path fill="#EDC475" d="M356.4,98.4c-1.4-0.4-3.4,0.4-4.1,1.9c-0.2,0.2-0.2,0.2-0.4,0.4c-0.5,0.5-0.5,1.4,0,2.1
				c0.2,0.2,0.4,0.4,0.5,0.4c0.2,0.4,0.4,0.7,0.7,0.9c0.5,0.5,1.6,1.1,2.3,1.1c1.8,0,3-1.2,3.4-3C359.1,100.5,358.2,98.7,356.4,98.4
				z M352.3,100.5L352.3,100.5C352.3,100.7,352.3,100.7,352.3,100.5C352.3,100.7,352.3,100.7,352.3,100.5z M352.3,102.6L352.3,102.6
				C352.3,102.5,352.3,102.5,352.3,102.6z"/>
			<path fill="#EDC475" d="M389,94.1c0.2,0.4,0.2,0.7,0.4,1.1c0.4,1.4,2.5,1.4,2.8,0c0.2-0.4,0.2-0.7,0.4-1.1
				C393.5,91.1,388.3,91.1,389,94.1z"/>
			<path fill="#EDC475" d="M367.1,85.4c-0.5-0.7-1.6-0.7-2.1,0c0,0.2-0.2,0.2-0.2,0.4c-0.7,0.9,0.2,2.1,1.2,2.1s1.8-1.2,1.2-2.1
				C367.2,85.6,367.1,85.4,367.1,85.4z"/>
			<path fill="#EDC475" d="M428.4,81.4c-1.6-1.2-4.8-0.7-5.1,1.8c-0.2,0.7-0.2,1.4,0,2.1c0.2,0.5,0.5,0.9,0.7,1.4
				c0.2,0.5,0.9,0.9,1.4,0.9c1.1,0,1.8,0,2.8-0.5C430,85.4,430.3,82.8,428.4,81.4z"/>
			<path fill="#EDC475" d="M448.4,106.2c-0.4,0.2-1.1,0.4-0.5,0.4l0,0l0,0c-1.2,0.2-2,1.4-1.2,2.5c1.1,2,3.4,1.6,4.6,0
				C452.3,107.2,450,105.5,448.4,106.2z"/>
			<path fill="#EDC475" d="M457.5,89.7c-0.7,0.7-0.2,1.8,0.7,1.8c0.4,0,0.5,0.4,0.5,0.5c-0.2,2.7,4.4,2.3,3.7-0.5
				C461.9,89.3,459.2,87.9,457.5,89.7z"/>
			<path fill="#EDC475" d="M384.4,57.1c2,0,3.5-1.6,3.5-3.5c0-1.9-1.6-3.5-3.5-3.5s-3.5,1.6-3.5,3.5
				C380.9,55.5,382.5,57.1,384.4,57.1z"/>
			<path fill="#EDC475" d="M350.7,111.9c-0.4,0.4-0.9,0.7-1.2,1.2c-0.4,0.4-0.2,1.1,0.4,1.1c0.7,0,1.2-0.2,2-0.4
				C353.6,113.6,352.2,110.4,350.7,111.9z"/>
			<path fill="#EDC475" d="M341.2,126.9c-2.5,0-2.5,3.9,0,3.9C343.7,130.8,343.7,126.9,341.2,126.9z"/>
			<path fill="#EDC475" d="M383,120.4c-1.4,0.7-3,1.8-3,3.5c0,1.8,1.4,2.8,3,3.5c2.8,1.4,6.4-0.4,6.4-3.5
				C389.4,120.7,385.8,118.9,383,120.4z"/>
			<path fill="#EDC475" d="M372.4,102.5c-0.5,0.4-1.2,0.5-2,0.9c-0.5,0.4-0.5,1.2,0,1.6c0.7,0.4,1.4,0.4,2,0.9
				c1.2,0.7,2.8-0.2,2.8-1.6C375,102.6,373.4,101.8,372.4,102.5z"/>
			<path fill="#EDC475" d="M288,61.3c0.5,0.4,1.2-0.4,0.9-0.9c-0.5-0.9-0.9-1.9-1.6-2.8c-1.6-1.9-4.1,0.5-2.1,2.1
				C286,60.3,287.1,60.8,288,61.3z"/>
			<path fill="#EDC475" d="M532.6,38.8c-2,0-3.5,1.6-3.5,3.5c0,1.9,1.6,3.5,3.5,3.5s3.5-1.6,3.5-3.5
				C536.2,40.4,534.6,38.8,532.6,38.8z"/>
			<path fill="#EDC475" d="M556.7,42.7c-2.7,0-2.7,4.1,0,4.1C559.2,46.8,559.2,42.7,556.7,42.7z"/>
			<path fill="#EDC475" d="M566.5,54.6c0,0-0.2,0.2-0.4,0.4c-1.8,1.8,1.1,4.6,2.8,2.8c0.2-0.2,0.2-0.2,0.4-0.4
				C571.1,55.5,568.3,52.8,566.5,54.6z"/>
			<path fill="#EDC475" d="M570.4,45.9c1.2,0,1.6-1.2,0.9-2.1c-0.2-0.2-0.2-0.4-0.4-0.4c-0.4-0.2-0.7-0.2-0.9,0
				c-0.2,0.2-0.4,0.2-0.4,0.4C568.8,44.7,569.1,45.9,570.4,45.9z"/>
			<path fill="#EDC475" d="M569.9,90.4c-0.2,0.4-0.4,0.7-0.5,1.1c-0.4,1.2,0.9,2.7,2.3,2.3c0.4-0.2,0.7-0.4,1.1-0.5
				c1.2-0.7,1.4-2.3,0.4-3.4S570.4,89.2,569.9,90.4z"/>
			<path fill="#EDC475" d="M547,69.8c-2,0-3.7,1.8-3.7,3.7c0.2,2,1.6,3.7,3.7,3.7c1.9,0,3.7-1.6,3.7-3.7
				C550.7,71.6,549.1,69.8,547,69.8z"/>
			<path fill="#EDC475" d="M589.5,85.1c2.5,0,2.5-3.9,0-3.9S587,85.1,589.5,85.1z"/>
			<path fill="#EDC475" d="M598.4,56.9c-3,0-3,4.6,0,4.6C601.2,61.5,601.2,56.9,598.4,56.9z"/>
			<path fill="#EDC475" d="M612.8,69c-2.8,0-2.8,4.3,0,4.3C615.6,73.4,615.6,69,612.8,69z"/>
			<path fill="#EDC475" d="M435.3,97.3c-0.7,0.9-0.7,1.4,0,2.3c0.9,1.1,2.8,0.2,2.8-1.2C438.1,97.1,436.4,96.1,435.3,97.3z"/>
			<path fill="#EDC475" d="M417.2,109c-2,0-2,3,0,3C419.2,111.9,419.2,109,417.2,109z"/>
			<path fill="#EDC475" d="M267.8,63.6c-0.4,0.9-0.9,2.1-0.4,3c0.2,0.2,0.5,0.5,0.9,0.4c1.2-0.4,1.4-1.8,1.8-2.8
				C270.6,62.8,268.1,62,267.8,63.6z"/>
			<path fill="#EDC475" d="M287.5,79.6c-0.4,0.7-0.5,1.6-0.7,2.5c-0.5,2.5,3.5,2.5,3,0c-0.2-0.9-0.2-1.8-0.7-2.5
				C288.7,78.9,287.8,78.9,287.5,79.6z"/>
			<path fill="#EDC475" d="M567.2,79.4c-1.1-0.5-1.1,1.8,0,1.2c0.2-0.2,0.5-0.2,0.7-0.4c0.4-0.2,0.4-0.5,0-0.7
				C567.7,79.6,567.5,79.4,567.2,79.4z"/>
			<path fill="#EDC475" d="M715.7,180.6c-2.8,0-2.8,4.6,0,4.6C718.6,185.2,718.6,180.6,715.7,180.6z"/>
			<path fill="#EDC475" d="M717.7,165.4c-0.7-0.7-2.1-0.7-2.5,0.4l-0.2,0.2c-0.4,0.4-0.4,0.9,0,1.1l0.2,0.2c0.5,0.9,1.8,1.1,2.5,0.4
				l0.2-0.2c0.5-0.5,0.5-1.4,0-2C717.7,165.6,717.7,165.4,717.7,165.4z"/>
			<path fill="#EDC475" d="M705.5,167.2c-0.4-0.2-0.7-0.4-1.2-0.5c-0.4-0.2-0.9,0.4-0.7,0.7c0.2,0.4,0.4,0.7,0.5,1.2
				C704.8,170.2,707.1,168.1,705.5,167.2z"/>
			<path fill="#EDC475" d="M695.4,145.2c-1.1,0-1.4,1.1-1.1,1.8c0.2,0.4,0.4,0.9,0.5,1.2c0.2,0.4,0.9,0.4,1.1,0
				c0.2-0.4,0.4-0.9,0.5-1.2C696.8,146.2,696.2,145.2,695.4,145.2z"/>
			<path fill="#EDC475" d="M725,151.2c-2.1,0-2.1,3.2,0,3.2C727.1,154.6,727.1,151.2,725,151.2z"/>
			<path fill="#EDC475" d="M739.3,175.7c0-0.2,0-0.4,0-0.4c0-2-3.2-2-3,0c0,0.2,0,0.4,0,0.4C736.3,177.6,739.1,177.6,739.3,175.7z"
				/>
			<path fill="#EDC475" d="M726.9,185.8c-0.2-0.2-0.5-0.2-0.9,0c-0.2,0.2-0.4,0.4-0.5,0.5c-0.9,0.9-0.2,2.5,1.1,2.5
				c1.2,0,2-1.6,1.1-2.5C727.3,186.1,727.1,186,726.9,185.8z"/>
			<path fill="#EDC475" d="M738.3,183.5c0,0,0,0.2-0.2,0.2c-0.2,0.2-0.4,0.2-0.5,0.4c-0.5,0.4-0.5,1.4,0,1.8
				c0.2,0.2,0.4,0.4,0.5,0.4c0,0,0,0.2,0.2,0.2c1.6,2.7,5.7,1.4,5.7-1.6C743.9,181.9,739.9,180.8,738.3,183.5z"/>
			<path fill="#EDC475" d="M728.2,168.9c-0.2,0.2-0.2,0.2-0.4,0.4c-0.4,0.2-0.4,0.7,0,0.9c0.2,0.2,0.2,0.2,0.4,0.4
				c0.7,0.7,1.8,0.2,1.8-0.7C729.9,168.8,728.9,168.2,728.2,168.9z"/>
			<path fill="#EDC475" d="M700.9,154.2c-0.4,0-0.4,0.5,0,0.5S701.2,154.2,700.9,154.2z"/>
			<path fill="#EDC475" d="M112.8,210.2C112.5,210.1,112.5,209.9,112.8,210.2c-0.4-0.4-0.5-0.5-0.7-0.5c0,0-0.2-0.2-0.4-0.2
				c0,0,0,0,0-0.2c-0.5-1.1-1.8-0.9-2.5-0.4c-1.6,1.2-2.1,3-1.4,5c0.9,2.1,3.4,3.2,5.3,1.8C115,214.3,115,211.3,112.8,210.2z"/>
			<path fill="#EDC475" d="M119.1,202.1c0,0.2,0,0.2,0,0.4c0.2,1.1,2,1.1,2.1,0c0-0.2,0-0.2,0-0.4
				C121.4,200.3,118.7,200.3,119.1,202.1z"/>
			<path fill="#EDC475" d="M148.5,221.6c0.4-0.9,0-2-1.1-2c-1.1,0-1.4,1.1-1.1,2C146.7,222.8,147.9,222.8,148.5,221.6z"/>
			<path fill="#EDC475" d="M167.3,220.3c3.4,0,3.4-5.1,0-5.1C164.1,215.2,164.1,220.3,167.3,220.3z"/>
			<path fill="#EDC475" d="M161.8,256c1.8,0,1.8-2.7,0-2.7S160,256,161.8,256z"/>
			<path fill="#EDC475" d="M145.1,244.8c-0.2-0.5-0.4-1.1-0.5-1.6c-0.2-0.4-0.7-0.4-0.9,0c-0.2,0.5-0.4,1.1-0.5,1.6
				C142.5,246.4,145.6,246.4,145.1,244.8z"/>
			<path fill="#EDC475" d="M188.9,217.2c-3,0-3,4.6,0,4.6C191.9,221.6,191.9,217.2,188.9,217.2z"/>
			<path fill="#EDC475" d="M151.5,236.1c-0.7-0.7-1.2-1.4-2.1-1.9c-0.4-0.4-1.2,0-1.1,0.5c0.4,0.9,0.7,1.6,1.1,2.5
				C150.3,239.1,152.9,237.2,151.5,236.1z"/>
			<path fill="#EDC475" d="M105.8,228c-0.5-0.2-0.9-0.2-1.4,0c-0.5,0.2-0.9,0.7-0.9,1.1c0,0.5,0.2,0.9,0.4,1.2
				C105.8,232.8,108.4,228.9,105.8,228z"/>
			<path fill="#EDC475" d="M96.9,245.5c-0.5-0.2-1.1-0.2-1.8,0c-0.2,0-0.2,0.2-0.2,0.2c-0.4,0-0.9,0.2-1.1,0.2
				c-1.4,0.5-2.5,1.8-2.3,3.4c0.2,1.6,1.4,2.5,3,2.7c1.6,0.2,3-0.9,3.9-2.1c0.7-0.9,0.4-2.1,0-3C98.3,246.1,97.6,245.7,96.9,245.5z"
				/>
			<path fill="#EDC475" d="M107.3,244.8c-0.5,0.2-0.9,0.5-1.1,1.1c-0.4,0.9,0.5,2.1,1.6,2c0.2,0,0.2,0,0.4,0c0.7,0,1.2-0.5,1.2-1.2
				c0,0,0-0.2,0-0.4C109.5,245.3,108.2,244.5,107.3,244.8z"/>
			<path fill="#EDC475" d="M114.4,270.7c0.2,0,0.2-0.2,0-0.2C114.3,270.5,114.3,270.7,114.4,270.7z"/>
			<path fill="#EDC475" d="M145.8,274.9c1.2-0.5,1.8-2.5,0.7-3.4c-0.5-0.5-1.2-0.9-2-1.1c-0.5-0.2-1.2,0.2-1.2,0.7
				c0,0-0.2,0.9,0,0.7c-0.2,0.4-0.2,0.7-0.2,1.2C143,274.4,144.4,275.5,145.8,274.9z"/>
			<path fill="#EDC475" d="M131.3,259.7c-1.6,0-1.6,2.7,0,2.7C132.9,262.4,132.9,259.7,131.3,259.7z"/>
			<path fill="#EDC475" d="M166.9,243c-0.4,0.4,0,1.1,0.5,0.9c0.9-0.4,1.8-0.9,2.7-1.2c1.1-0.5,0-2.3-1.1-1.4
				C168.3,241.8,167.6,242.3,166.9,243z"/>
			<path fill="#EDC475" d="M152.6,411.8c-2,0.5-1.8,3.9-1.6,5.3c0,0.4,0.4,0.9,0.7,1.2v0.2c0.4,1.2,2.3,2.1,3.2,0.9
				c0.2-0.4,0.5-0.7,0.7-0.9c0.5-0.5,0.9-1.2,0.9-2.1c0-1.1-0.4-2.7-1.2-3.5C154.7,412.2,153.6,411.4,152.6,411.8z"/>
			<path fill="#EDC475" d="M144,435.2c-1.6,0-1.6,2.7,0,2.7C145.8,437.9,145.8,435.2,144,435.2z"/>
			<path fill="#EDC475" d="M164.1,403.6c-0.2,0.2-0.4,0.2-0.4,0.4c-0.2,0.4-0.2,0.7,0,0.9c0.2,0.2,0.2,0.4,0.4,0.4
				c0.7,0.7,2.1,0.4,2.1-0.9C166.2,403.3,164.8,402.9,164.1,403.6z"/>
			<path fill="#EDC475" d="M174.5,420c0.2,0.4,0.2,0.5,0.4,0.9c0.2,0.4,0.7,0.4,0.9,0c0.2-0.4,0.2-0.5,0.4-0.9
				C176.5,418.5,174.2,418.5,174.5,420z"/>
			<path fill="#EDC475" d="M162.7,431.3c-0.4,0.5-0.7,0.9-0.7,1.6c-0.4,2.3,3.2,2.3,2.8,0c-0.2-0.7-0.5-1.1-0.7-1.6
				C163.7,430.9,163,430.9,162.7,431.3z"/>
			<path fill="#EDC475" d="M166.6,420c-0.2,0.4-0.4,0.7-0.5,1.1c-0.2,0.4,0.2,0.7,0.7,0.7c0.4-0.2,0.7-0.4,1.1-0.5
				C169.2,420.5,167.3,418.5,166.6,420z"/>
			<path fill="#EDC475" d="M172.6,454.9c0-1.4-1.8-1.8-2.5-0.7l-0.2,0.2c-0.2,0.4-0.2,0.7,0,0.9l0.2,0.2
				C171,456.7,172.6,456.3,172.6,454.9z"/>
			<path fill="#EDC475" d="M153.8,442.6c-1.9,0-1.9,3,0,3C155.6,445.7,155.6,442.6,153.8,442.6z"/>
			<path fill="#EDC475" d="M147.4,463.2c-1.2-0.7-2.8-0.4-3.5,0.9c-0.5,0.9-0.5,2.5,0.4,3.2c1.2,0.9,2.8,1.2,4.1-0.2
				C149.2,465.9,148.8,464.1,147.4,463.2z"/>
			<path fill="#EDC475" d="M173.8,471.9c-0.5-0.2-0.9-0.4-1.4-0.7c-0.4-0.2-0.7,0-0.9,0.5c0,0.4-0.2,0.7-0.2,1.2
				c-0.4,1.2,0.9,2.5,2.1,1.9C174.7,474.4,174.9,472.6,173.8,471.9z"/>
			<path fill="#EDC475" d="M187.3,437.7c0,0-0.4-0.7-0.2-0.7c-0.2-0.4-0.9-0.4-1.1,0c-0.5,1.1-1.8,2.5,0,3.2
				C187.7,440.9,188.9,438.6,187.3,437.7z"/>
			<path fill="#EDC475" d="M181.8,388.4c-1.1,0-1.1,1.6,0,1.6C182.7,390,182.7,388.4,181.8,388.4z"/>
			<path fill="#EDC475" d="M427.1,61.7c0.2-2-1.1-3.5-3-3.9c-1.9-0.4-4.1,1.2-3.9,3.4c0,0.2,0,0.2,0,0.4c-0.2,0.4-0.4,0.5-0.4,0.9
				c-0.2,0.7,0.2,1.4,0.9,1.6c0.4,0,0.7,0,1.1,0s0.7,0.4,0.9,0.4C424.8,65.2,427,63.8,427.1,61.7z"/>
			<path fill="#EDC475" d="M411.2,47.9c-0.7,0.2-1.4,0.2-2,0.9c-0.5,0.5-0.5,1.2,0,1.8c0.5,0.5,1.2,0.7,2,0.9
				C414,51.9,414,47.2,411.2,47.9z"/>
			<path fill="#EDC475" d="M397.2,34c-1.4,0-1.4,2.3,0,2.3C398.8,36.3,398.8,34,397.2,34z"/>
			<path fill="#EDC475" d="M315.3,67.9c-0.2-0.2-0.5-0.2-0.7-0.4c-1.4-0.7-3.2-0.2-3.9,1.2c-0.5,1.4,0.2,3.4,1.8,3.7
				c0.4,0,0.5,0.2,0.9,0.2c1.2,0.2,2.5-0.2,3-1.4C316.7,70,316.4,68.4,315.3,67.9z"/>
			<path fill="#EDC475" d="M92.1,267.9c-1.6,0-1.6,2.5,0,2.5S93.7,267.9,92.1,267.9z"/>
			<path fill="#EDC475" d="M80.8,281.9c-1.1,0-1.1,1.8,0,1.8C81.8,283.5,81.8,281.9,80.8,281.9z"/>
			<path fill="#EDC475" d="M595,107.4c0.2-3.2-4.1-3.5-6.2-2.3c-0.7,0.4-1.2,0.9-1.6,1.4c-0.2,0.2-0.4,0.5-0.5,0.7
				c0,0.2-0.2,0.2-0.2,0.4l-0.2,0.2c-1.1,1.9-0.4,4.6,1.4,5.8c1.2,0.9,2.5,1.4,3.9,1.1c1.2-0.4,2.3-1.4,2.7-2.7
				c1.1-0.7,1.6-2,1.6-3.2C595.7,108.1,595.4,107.6,595,107.4z"/>
			<path fill="#EDC475" d="M600,94.5c-0.4,0-0.5,0-0.9,0c-1.4-0.2-2,1.6-1.1,2.5c0.9,0.9,2.7,0.4,2.5-1.1c0-0.4,0-0.5,0-0.9
				C600.7,94.8,600.3,94.5,600,94.5z"/>
			<path fill="#EDC475" d="M282.7,532.7c-0.9,0-0.9,1.4,0,1.4C283.6,534.1,283.6,532.7,282.7,532.7z"/>
			<path fill="#EDC475" d="M283.6,513.6c-2.8,0-2.8,4.3,0,4.3C286.2,518,286.2,513.6,283.6,513.6z"/>
			<path fill="#EDC475" d="M299.2,522.2c-0.2-1.9-1.6-3.7-3.7-3.7c-2,0-3.7,1.8-3.7,3.7c0.2,2,1.6,3.7,3.7,3.7
				C297.4,526,299.3,524.2,299.2,522.2z"/>
			<path fill="#EDC475" d="M303.9,541.2c-0.4-0.5-1.4-0.2-1.2,0.5c0,0.2,0,0.5,0,0.7c-0.2-0.2-0.5-0.2-0.7-0.4
				c-0.7-0.7-1.6-0.5-2.1,0c-0.4-0.4-0.7-0.7-1.4-0.7c-2.3,0-2.3,3.5,0,3.5c0.5,0,1.1-0.2,1.2-0.7c1.1,1.1,2.5,1.6,3.9,1.1
				c0.9-0.4,1.2-1.2,0.7-2.1C304.7,542.5,304.5,541.7,303.9,541.2z"/>
			<path fill="#EDC475" d="M702.8,126.6c-4.1,0-4.1,6.2,0,6.2S706.9,126.6,702.8,126.6z"/>
			<path fill="#EDC475" d="M160.9,390.9c-0.2,0-0.4,0.2-0.5,0.2c-1.2,0.5-2.3,1.6-2.3,2.8c0,0.2,0,0.4,0,0.5
				c0.2,1.6,0.9,2.8,2.3,3.4c1.6,0.7,3.4,0.2,4.3-1.1C166.7,394.1,164.3,389.6,160.9,390.9z"/>
			<path fill="#EDC475" d="M140.1,424.9c-3.5,0-3.5,5.7,0,5.7C143.7,430.6,143.7,424.9,140.1,424.9z"/>
		</g>
	</g>
</g>
</svg>
