<svg id="visual" viewBox="0 0 900 600" width="900" height="600" xmlns="http://www.w3.org/2000/svg" xmlns:xlink="http://www.w3.org/1999/xlink" version="1.1"><rect x="0" y="0" width="900" height="600" fill="#002233"></rect><path d="M0 89L6 89.5C12 90 24 91 36 91.5C48 92 60 92 72 94.3C84 96.7 96 101.3 108 99C120 96.7 132 87.3 144 85.3C156 83.3 168 88.7 180 90.2C192 91.7 204 89.3 216 91.3C228 93.3 240 99.7 252 97.8C264 96 276 86 288 83.5C300 81 312 86 324 89.7C336 93.3 348 95.7 360 95.2C372 94.7 384 91.3 396 90.2C408 89 420 90 432 93C444 96 456 101 468 100.5C480 100 492 94 504 92.5C516 91 528 94 540 93.5C552 93 564 89 576 90.5C588 92 600 99 612 99C624 99 636 92 648 91C660 90 672 95 684 97.3C696 99.7 708 99.3 720 100C732 100.7 744 102.3 756 98.8C768 95.3 780 86.7 792 86.7C804 86.7 816 95.3 828 96.2C840 97 852 90 864 86C876 82 888 81 894 80.5L900 80L900 0L894 0C888 0 876 0 864 0C852 0 840 0 828 0C816 0 804 0 792 0C780 0 768 0 756 0C744 0 732 0 720 0C708 0 696 0 684 0C672 0 660 0 648 0C636 0 624 0 612 0C600 0 588 0 576 0C564 0 552 0 540 0C528 0 516 0 504 0C492 0 480 0 468 0C456 0 444 0 432 0C420 0 408 0 396 0C384 0 372 0 360 0C348 0 336 0 324 0C312 0 300 0 288 0C276 0 264 0 252 0C240 0 228 0 216 0C204 0 192 0 180 0C168 0 156 0 144 0C132 0 120 0 108 0C96 0 84 0 72 0C60 0 48 0 36 0C24 0 12 0 6 0L0 0Z" fill="#0066FF" stroke-linecap="round" stroke-linejoin="miter"></path></svg>